<svg width="355" height="562" viewBox="0 0 355 562" fill="none" xmlns="http://www.w3.org/2000/svg">
<path fill-rule="evenodd" clip-rule="evenodd" d="M145.711 188.789C171.912 172.179 214.49 161.184 288.415 161.418L276.718 124.455C276.718 122.35 277.654 121.414 279.525 120.946L380.12 178.028C384.331 180.133 384.331 182.94 380.822 186.216L298.943 258.504C294.498 258.504 291.223 256.866 290.053 252.655L294.966 206.335C257.535 207.972 216.829 224.348 172.614 252.655L145.711 188.789Z" fill="white"/>
<path fill-rule="evenodd" clip-rule="evenodd" d="M383.372 378.99C357.171 395.6 314.593 406.595 240.668 406.361L252.365 443.324C252.365 445.43 251.429 446.365 249.558 446.833L148.963 389.751C144.752 387.646 144.752 384.839 148.261 381.563L230.141 309.276C234.585 309.276 237.861 310.913 239.03 315.124L234.118 361.444C271.548 359.807 312.254 343.431 356.469 315.124L383.372 378.99Z" fill="white"/>
<path d="M504.087 24.096L503.853 21.7566C503.853 16.142 501.982 10.9953 498.005 7.01825C493.794 2.57336 487.945 0 481.629 0C480.927 0 479.523 0 478.588 0.233942C476.716 0.233942 474.611 0.467883 472.739 0.701825C318.572 31.5821 165.34 43.7471 23.1036 52.169C17.0211 52.4029 11.1726 54.9763 7.66346 58.4854C2.04886 63.3982 -0.758438 70.4164 0.177328 77.2007C7.8974 159.548 15.1496 217.098 22.1678 272.776C31.9934 352.55 40.6492 421.563 48.1353 540.171C48.3693 545.552 50.7087 550.464 53.9839 553.74C58.1948 558.886 64.7452 561.694 71.0616 561.694C72.2313 561.694 73.1671 561.694 74.3368 561.46C232.481 544.85 364.658 532.217 502.918 536.896C513.445 537.832 523.505 531.047 525.142 522.859C526.78 519.35 527.248 515.607 527.014 511.864C510.872 308.803 506.661 239.556 504.087 24.096ZM476.248 491.277C345.943 488.236 216.573 500.167 94.4558 513.268C87.4375 407.292 79.4835 345.766 70.5937 274.881C64.0434 224.35 57.493 171.947 50.2408 96.8518C162.533 89.8335 307.81 78.1365 455.427 50.7653C457.767 242.363 461.978 304.826 476.248 491.277Z" fill="white"/>
</svg>
