<svg width="32" height="32" viewBox="0 0 32 32" fill="none" xmlns="http://www.w3.org/2000/svg">
<path d="M15.8588 31.9986C7.20478 32.1143 -0.159747 24.7306 0.00263527 15.6792C0.165018 7.23517 7.18568 -0.235309 16.3173 0.00567402C24.8854 0.227379 31.7914 7.40868 31.7628 16.0744C31.7341 24.9137 24.4747 32.1143 15.8588 31.9986ZM2.02764 15.9877C1.99899 23.6124 8.06446 29.878 15.6582 29.9936C23.4813 30.1093 29.7664 23.7666 29.7473 15.9684C29.7282 8.22803 23.5195 2.03957 15.8015 2.04921C8.22684 2.03957 2.00854 8.33406 2.02764 15.9877Z" fill="#6300A9"/>
<path d="M14.7139 15.7851C16.4428 17.1635 16.1276 19.1781 15.2488 20.2577C14.5993 21.0481 13.7301 21.4337 12.7462 21.4723C11.2275 21.5205 9.69918 21.4819 8.17087 21.4819C8.12311 21.4819 8.0849 21.4626 7.99893 21.4337C7.99893 17.8286 7.99893 14.2235 7.99893 10.6087C8.01804 10.5895 8.03714 10.5509 8.0658 10.5509C9.71828 10.5702 11.3803 10.4641 13.0041 10.6473C15.1438 10.8883 16.2518 13.086 15.3062 14.9464C15.1629 15.2356 14.9336 15.4862 14.7139 15.7851ZM10.4729 14.7247C11.0651 14.7247 11.6191 14.7633 12.1636 14.7151C12.6698 14.6669 12.9755 14.291 13.0041 13.8283C13.0328 13.3174 12.7844 12.9125 12.2591 12.8258C11.6764 12.7294 11.0842 12.7487 10.4729 12.7101C10.4729 13.4234 10.4729 14.05 10.4729 14.7247ZM10.4824 17.0671C10.4824 17.7515 10.4824 18.3877 10.4824 19.0335C11.046 19.0335 11.5809 19.0721 12.1158 19.0239C12.6889 18.966 13.0137 18.5612 13.0041 18.031C12.9946 17.5298 12.6603 17.1249 12.1254 17.0767C11.5905 17.0285 11.0555 17.0671 10.4824 17.0671Z" fill="#6300A9"/>
<path d="M21.8191 13.0956C21.8191 15.9199 21.8191 18.6672 21.8191 21.4433C20.9212 21.4433 20.0711 21.4433 19.1541 21.4433C19.1541 18.6961 19.1541 15.9489 19.1541 13.1438C18.3326 13.1438 17.5589 13.1438 16.7566 13.1438C16.7566 12.2474 16.7566 11.4087 16.7566 10.5412C19.2687 10.5412 21.7522 10.5412 24.2835 10.5412C24.2835 11.3895 24.2835 12.2281 24.2835 13.1053C23.4811 13.0956 22.6883 13.0956 21.8191 13.0956Z" fill="#6300A9"/>
</svg>
