<svg width="96" height="23" viewBox="0 0 96 23" fill="none" xmlns="http://www.w3.org/2000/svg">
<path d="M8.91531 9.70744C8.31845 10.3452 7.58386 10.7725 6.74909 11.016C3.69176 11.9036 0.676161 10.0769 0.0646944 6.97669C0.0459122 6.87968 0.0208692 6.78267 0 6.68566C0 6.29349 0 5.89925 0 5.50708C0.11478 5.07776 0.191996 4.63605 0.348515 4.22324C1.62571 0.842321 6.13554 -0.181451 8.76505 2.30367C8.81931 2.35527 8.85479 2.42545 8.89861 2.48737C8.65444 2.71855 8.4061 2.94559 8.16611 3.18296C7.81133 3.53591 7.46281 3.89712 7.11013 4.2542C7.04334 4.21705 6.96822 4.18815 6.90978 4.14068C6.04997 3.42033 4.84373 3.31299 3.8921 3.87442C2.92377 4.44616 2.43752 5.54837 2.67334 6.63819C2.94881 7.90964 4.19262 8.78068 5.49903 8.63619C6.11049 8.56808 6.61344 8.29975 7.06213 7.90758C7.13099 7.97157 7.20195 8.03349 7.26873 8.09747C7.81968 8.63206 8.36854 9.16872 8.91531 9.70744Z" fill="#DC955B"/>
<path d="M0.000274658 17.059C0.127577 16.6111 0.223575 16.1529 0.388441 15.7194C0.634697 15.0775 1.00826 14.5078 1.52581 14.0413C2.10806 14.6213 2.69031 15.2034 3.27465 15.7834C3.29969 15.8082 3.34143 15.8206 3.37691 15.8371C3.33308 15.8928 3.29134 15.9485 3.24543 16.0001C2.88022 16.4253 2.67153 16.9166 2.62353 17.4718C2.49205 19.0157 3.80681 20.2934 5.30939 20.2397C6.89962 20.1819 8.11838 18.6586 7.75734 17.1292C7.64048 16.6317 7.37544 16.223 7.06449 15.8329C7.66969 15.2344 8.2749 14.6379 8.88011 14.0393C9.16601 14.3902 9.50409 14.7122 9.73157 15.0981C10.9357 17.1188 10.5789 19.7154 8.88219 21.3522C7.96395 22.2398 6.8558 22.7289 5.56399 22.8177C2.7884 23.0117 0.396789 21.0034 0.0461868 18.3841C0.042013 18.349 0.01697 18.316 0.00236157 18.283C0.000274658 17.8764 0.000274658 17.4677 0.000274658 17.059Z" fill="#75B5A8"/>
<path d="M75.5636 4.42196C75.9705 3.95342 76.4255 3.5757 77.0349 3.46217C78.0282 3.27641 78.9736 3.32595 79.7166 4.12886C80.1819 4.63043 80.4073 5.24758 80.5117 5.90808C80.5534 6.16196 80.5638 6.42409 80.5659 6.6821C80.5701 8.11868 80.568 9.55526 80.568 11.0084C79.5872 11.0084 78.6126 11.0084 77.6088 11.0084C77.6088 10.9341 77.6088 10.8515 77.6088 10.7689C77.6046 9.40252 77.6067 8.03612 77.5921 6.66972C77.59 6.46331 77.5316 6.25278 77.4669 6.05256C77.3834 5.78836 77.1643 5.67071 76.8992 5.67071C76.6321 5.67071 76.4004 5.79043 76.3295 6.05256C76.2481 6.35185 76.1897 6.66559 76.1855 6.97313C76.1709 8.25285 76.1792 9.53462 76.1792 10.8143C76.1792 10.8763 76.1792 10.9382 76.1792 11.0125C75.1942 11.0125 74.2196 11.0125 73.22 11.0125C73.22 10.9299 73.22 10.8474 73.22 10.7648C73.2158 9.3984 73.2158 8.03199 73.2033 6.66559C73.2012 6.46537 73.1532 6.26103 73.0885 6.06908C72.9967 5.79868 72.7901 5.65833 72.5334 5.66865C72.2642 5.68103 72.043 5.80075 71.9762 6.06495C71.9031 6.35804 71.8447 6.66352 71.8426 6.96488C71.828 8.30858 71.8364 9.65021 71.8364 11.0104C70.8555 11.0104 69.883 11.0104 68.8938 11.0104C68.8938 8.53356 68.8938 6.04637 68.8938 3.54474C69.858 3.54474 70.8325 3.54474 71.8259 3.54474C71.8259 3.80481 71.8259 4.0752 71.8259 4.34559C72.2663 3.64588 72.8986 3.35484 73.7083 3.3858C74.5014 3.4147 75.1107 3.76765 75.5636 4.42196Z" fill="#30253B"/>
<path d="M38.9965 22.613C37.9927 22.613 37.0244 22.613 36.0477 22.613C36.0477 19.1887 36.0477 15.7748 36.0477 12.3464C37.0244 12.3464 37.999 12.3464 38.9882 12.3464C38.9882 13.5518 38.9882 14.7593 38.9882 16.0225C39.0487 15.9523 39.0779 15.9234 39.1029 15.8904C39.5621 15.2753 40.1923 15.007 40.9499 14.9843C41.5071 14.9678 42.0455 15.0338 42.5276 15.3331C43.1724 15.7315 43.475 16.3527 43.6148 17.0586C43.6858 17.4178 43.7129 17.7893 43.7171 18.1567C43.7275 19.5623 43.7213 20.97 43.7213 22.3756C43.7213 22.452 43.7213 22.5284 43.7213 22.6151C42.7279 22.6151 41.7554 22.6151 40.762 22.6151C40.762 22.3798 40.762 22.1548 40.762 21.9277C40.7579 20.7409 40.7579 19.5541 40.7453 18.3693C40.7432 18.1836 40.7057 17.9937 40.6493 17.8162C40.5346 17.4549 40.2278 17.2568 39.8521 17.2692C39.4681 17.2816 39.1948 17.4653 39.0988 17.8368C39.032 18.101 39.0007 18.3776 38.9986 18.65C38.9881 19.8905 38.9944 21.1331 38.9944 22.3756C38.9965 22.45 38.9965 22.5263 38.9965 22.613Z" fill="#30253B"/>
<path d="M34.0259 7.63009C34.606 8.28233 35.1716 8.91806 35.7517 9.5703C34.9984 10.2411 34.1866 10.8046 33.1953 11.011C31.2106 11.4238 29.3804 11.0874 27.8465 9.71066C26.6632 8.64973 26.1582 7.28746 26.25 5.71878C26.3836 3.44419 28.0322 1.59067 30.3675 1.08497C32.4043 0.643266 34.2074 1.08085 35.7455 2.536C35.1799 3.17173 34.6102 3.81365 34.028 4.47002C33.3539 3.74141 32.5254 3.43593 31.5487 3.52469C30.8871 3.58454 30.3299 3.85081 29.8875 4.34412C28.9797 5.35344 29.082 7.06041 30.1066 7.98305C31.0499 8.82931 32.9156 8.87678 34.0259 7.63009Z" fill="#30253B"/>
<path d="M35.7424 14.134C35.1747 14.7718 34.605 15.4137 34.0248 16.068C33.3695 15.36 32.5661 15.0484 31.6144 15.1144C30.9341 15.1619 30.3581 15.424 29.899 15.9235C28.9828 16.9184 29.0726 18.6274 30.0889 19.5645C31.0197 20.4232 32.9 20.4913 34.0227 19.2322C34.5946 19.8762 35.1643 20.516 35.7465 21.1703C34.9431 21.8886 34.0687 22.4686 33.0022 22.6544C31.0823 22.9888 29.3105 22.642 27.8371 21.3086C26.658 20.2436 26.1509 18.8854 26.2448 17.3147C26.3805 15.0401 28.0291 13.1866 30.3644 12.6829C32.4033 12.2433 34.2064 12.6809 35.7424 14.134Z" fill="#30253B"/>
<path d="M16.7432 11.2543C15.85 11.2254 15.0006 11.0314 14.2117 10.6C12.2563 9.52874 11.2233 7.37593 11.6052 5.15914C11.9683 3.05174 13.7213 1.34683 15.8917 0.991809C19.0012 0.481988 21.8582 2.79579 21.9625 5.90839C21.9646 5.96205 21.9584 6.01778 21.9563 6.07351C21.084 6.07145 20.2095 6.06732 19.3372 6.06526C19.3372 4.98988 18.6569 4.03835 17.6259 3.66682C16.5971 3.29736 15.4493 3.60903 14.7397 4.45117C14.0531 5.2644 13.9467 6.44711 14.4893 7.35735C14.9943 8.20568 15.7707 8.60817 16.7473 8.66803C16.7453 9.5308 16.7432 10.3915 16.7432 11.2543Z" fill="#562983"/>
<path d="M13.0639 14.0413C13.7693 13.29 14.6479 12.8339 15.6517 12.6357C18.4941 12.0743 21.0986 13.7028 21.8248 16.4749C22.5427 19.2159 20.6541 22.184 17.8555 22.7207C16.0232 23.0716 14.4309 22.6051 13.0681 21.3502C13.1432 21.2697 13.2142 21.1871 13.2914 21.1087C13.8236 20.5741 14.3578 20.0395 14.8921 19.5049C14.9422 19.542 14.9923 19.5792 15.0423 19.6205C15.5286 20.023 16.09 20.2521 16.7223 20.2479C17.7449 20.2397 18.5358 19.7835 19.0263 18.9063C19.5042 18.0518 19.4812 17.1622 18.9532 16.3324C18.4065 15.4758 17.5988 15.0692 16.5616 15.1208C15.9084 15.1539 15.3804 15.449 14.8963 15.8494C14.2848 15.2447 13.6754 14.644 13.0639 14.0413Z" fill="#C5D46F"/>
<path d="M64.8662 3.53723C65.8595 3.53723 66.832 3.53723 67.815 3.53723C67.815 6.03267 67.815 8.5178 67.815 11.0153C66.832 11.0153 65.8595 11.0153 64.8724 11.0153C64.8724 10.7346 64.8724 10.4621 64.8724 10.1897C64.8495 10.169 64.8244 10.1505 64.8015 10.1298C64.7931 10.167 64.7973 10.2103 64.7764 10.2392C64.0857 11.1722 63.1111 11.296 62.0676 11.102C61.0763 10.9183 60.5337 10.2351 60.3 9.30833C60.204 8.92442 60.1539 8.51986 60.1497 8.12356C60.133 6.67872 60.1435 5.23388 60.1435 3.78698C60.1435 3.70855 60.1435 3.63218 60.1435 3.54136C61.1285 3.54136 62.101 3.54136 63.1027 3.54136C63.1027 3.62186 63.1027 3.70442 63.1027 3.78905C63.1069 5.12449 63.1048 6.45993 63.1194 7.79331C63.1215 7.99972 63.1758 8.21232 63.2446 8.41047C63.3615 8.74897 63.6391 8.88933 63.9834 8.89965C64.3444 8.91203 64.6303 8.74071 64.7326 8.39808C64.8161 8.11737 64.8599 7.81395 64.862 7.52086C64.8766 6.2721 64.8682 5.02335 64.8682 3.7746C64.8662 3.69823 64.8662 3.62186 64.8662 3.53723Z" fill="#30253B"/>
<path d="M47.8261 11.019C46.8306 11.019 45.8623 11.019 44.8814 11.019C44.8814 8.52147 44.8814 6.02809 44.8814 3.52646C45.8602 3.52646 46.8327 3.52646 47.824 3.52646C47.824 3.81336 47.824 4.09201 47.824 4.27777C47.9763 4.15599 48.1683 3.99706 48.3666 3.84638C49.8149 2.7545 51.9623 3.49962 52.3964 5.25613C52.4924 5.64005 52.5383 6.0446 52.5446 6.4409C52.5613 7.88574 52.5508 9.33058 52.5508 10.7754C52.5508 10.8518 52.5508 10.9282 52.5508 11.0128C51.5575 11.0128 50.5829 11.0128 49.5916 11.0128C49.5916 10.9178 49.5916 10.8353 49.5916 10.7506C49.5874 9.42346 49.5874 8.09627 49.5749 6.76909C49.5728 6.56887 49.5269 6.36247 49.4643 6.17257C49.3474 5.82581 49.0678 5.6483 48.6984 5.6483C48.3353 5.6483 48.0431 5.82788 47.945 6.18289C47.8678 6.45948 47.8344 6.75464 47.8302 7.03948C47.8177 8.27997 47.8261 9.52047 47.8261 10.763C47.8261 10.8415 47.8261 10.9178 47.8261 11.019Z" fill="#30253B"/>
<path d="M39.8549 11.1705C38.5735 11.1685 37.4215 10.8072 36.5262 9.8681C34.6376 7.88867 35.3617 4.73067 37.9683 3.73786C39.7359 3.06498 41.4701 3.21359 42.9539 4.4706C45.0534 6.24775 44.5024 9.58739 41.9585 10.7391C41.2969 11.0364 40.6646 11.1664 39.8549 11.1705ZM39.7526 5.6822C38.8239 5.70903 38.1874 6.46654 38.2459 7.38711C38.3085 8.34483 39.0681 8.97024 40.0677 8.86703C40.9255 8.78034 41.5515 8.0249 41.4681 7.15387C41.3762 6.21885 40.6542 5.59964 39.7526 5.6822Z" fill="#30253B"/>
<path d="M48.5965 14.9803C49.9864 14.9948 51.2093 15.4096 52.1129 16.4995C53.7699 18.5016 52.9644 21.4635 50.4768 22.4192C48.8866 23.0301 47.2942 22.9496 45.8647 21.9692C43.3896 20.2726 43.7527 16.6501 46.4929 15.4117C47.1586 15.1124 47.7826 14.9844 48.5965 14.9803ZM48.6925 20.4707C49.5794 20.4501 50.2618 19.7359 50.2013 18.7679C50.1387 17.7792 49.3478 17.1868 48.3815 17.2859C47.5238 17.3726 46.8977 18.1259 46.9791 18.997C47.0668 19.9299 47.7909 20.5512 48.6925 20.4707Z" fill="#30253B"/>
<path d="M87.8631 8.26612C88.2638 8.79659 88.6687 9.33117 89.0777 9.87196C88.4454 10.5036 87.6878 10.871 86.8301 11.0402C85.6113 11.2796 84.4114 11.2363 83.2677 10.7058C81.7547 10.0041 80.9408 8.55509 81.1036 6.88321C81.2622 5.25054 82.4225 3.90478 84.0315 3.53325C85.3609 3.2257 86.6548 3.31033 87.8423 4.041C88.9003 4.69118 89.4075 5.67367 89.4909 6.88114C89.5139 7.19901 89.4951 7.521 89.4951 7.85744C87.5856 7.85744 85.7345 7.85744 83.8688 7.85744C83.9293 8.22484 84.1609 8.44982 84.4468 8.61288C85.3066 9.10207 86.1936 9.05459 87.0784 8.69338C87.3435 8.58399 87.5877 8.4168 87.8631 8.26612ZM86.8009 6.4931C86.7904 5.90897 86.1873 5.42598 85.2983 5.44662C84.4865 5.4652 83.946 5.86356 83.8834 6.4931C84.8517 6.4931 85.8179 6.4931 86.8009 6.4931Z" fill="#30253B"/>
<path d="M72.8841 19.4647C71.8719 19.4647 70.9495 19.4647 70.0271 19.4647C69.113 19.4647 68.1989 19.4647 67.2035 19.4647C67.3266 19.6608 67.4038 19.8383 67.5311 19.9683C68.009 20.4534 68.6247 20.5772 69.2779 20.5607C69.9791 20.5422 70.2879 20.4204 71.2438 19.8548C71.6465 20.3873 72.0514 20.9219 72.4667 21.471C72.0222 21.9313 71.4942 22.2533 70.8932 22.4514C69.4782 22.9199 68.0591 22.9365 66.6901 22.3234C64.0856 21.1552 63.9208 18.0302 65.4233 16.3294C66.1204 15.5409 67.0198 15.1323 68.0591 15.0208C69.1819 14.9011 70.2629 15.0332 71.2375 15.6483C72.2956 16.317 72.8048 17.3016 72.8799 18.5194C72.9008 18.8249 72.8841 19.1345 72.8841 19.4647ZM67.2724 18.0859C68.2449 18.0859 69.2174 18.0859 70.1899 18.0859C70.1815 17.5142 69.5847 17.025 68.6915 17.0456C67.8796 17.0642 67.3433 17.4564 67.2724 18.0859Z" fill="#30253B"/>
<path d="M64.6549 21.5972C64.0705 22.1524 63.386 22.4806 62.6201 22.6396C61.2469 22.9244 59.9301 22.7882 58.7322 22.0142C56.3156 20.4537 56.4136 17.0563 58.9075 15.6218C60.5541 14.6744 62.8455 14.7755 64.3147 15.8633C64.4295 15.9479 64.5338 16.0428 64.659 16.146C64.1791 16.726 63.7074 17.2957 63.265 17.8283C62.8726 17.6528 62.5179 17.4381 62.1318 17.3288C61.2073 17.0646 60.3057 17.5104 60.047 18.3298C59.855 18.9325 59.9364 19.5043 60.3788 19.9769C60.8567 20.4847 61.4723 20.6106 62.1276 20.4228C62.5074 20.3154 62.8601 20.107 63.2671 19.9253C63.697 20.4434 64.1728 21.0172 64.6549 21.5972Z" fill="#30253B"/>
<path d="M52.9641 8.75485C53.6799 8.59179 54.3811 8.43492 55.0698 8.27805C55.0969 8.30076 55.1178 8.30901 55.1199 8.31933C55.2702 8.97364 55.7648 9.20481 56.4576 9.17798C56.5891 9.17179 56.7331 9.14702 56.8458 9.08716C56.9355 9.03762 57.0399 8.92204 57.0419 8.83328C57.0461 8.74659 56.948 8.6083 56.8625 8.57321C56.4388 8.39777 56.0027 8.25948 55.5769 8.09022C55.1888 7.93748 54.7922 7.79093 54.427 7.59072C52.8994 6.75478 53.1018 5.04574 54.0389 4.17677C55.1262 3.16745 57.595 3.0725 58.6739 4.14994C59.0036 4.47813 59.252 4.85172 59.4315 5.30168C58.7094 5.5019 57.9978 5.70005 57.2757 5.90232C57.0962 5.54111 56.8332 5.31613 56.4221 5.30994C56.3658 5.30994 56.3094 5.312 56.2552 5.32026C56.0757 5.34709 55.9296 5.42966 55.9046 5.61955C55.8816 5.80325 56.0277 5.87962 56.1717 5.93535C56.5473 6.08396 56.9313 6.2078 57.2965 6.37499C57.7891 6.60204 58.3108 6.80432 58.7449 7.11805C60.1285 8.11912 59.9407 9.98915 58.4068 10.7549C57.5449 11.1842 56.6246 11.2276 55.6875 11.143C55.1053 11.0893 54.5502 10.9304 54.0597 10.6001C53.417 10.1563 53.0789 9.53506 52.9641 8.75485Z" fill="#30253B"/>
<path d="M79.3329 16.8947C78.6442 17.0888 77.9681 17.2828 77.2877 17.4624C77.2376 17.4747 77.1354 17.4087 77.0999 17.3509C76.885 17.0041 76.5719 16.8679 76.1733 16.9113C75.9938 16.9298 75.8457 17.0103 75.8123 17.1982C75.7789 17.3942 75.9354 17.4685 76.0857 17.5305C76.743 17.7988 77.4109 18.0506 78.0599 18.3375C78.5128 18.5377 78.9072 18.8349 79.2014 19.2395C79.959 20.2839 79.552 21.7246 78.3249 22.3418C77.4651 22.7752 76.5427 22.8206 75.6078 22.7381C75.0255 22.6865 74.4704 22.5275 73.9779 22.1994C73.3268 21.7638 72.9887 21.1426 72.8656 20.3541C73.5814 20.191 74.2867 20.0321 74.988 19.8732C75.3031 20.6472 75.8185 20.9196 76.6053 20.7401C76.7723 20.7009 76.935 20.6472 76.958 20.4449C76.981 20.2426 76.8224 20.1745 76.6742 20.1188C76.1107 19.9124 75.541 19.7204 74.9796 19.5078C74.4328 19.2994 73.9278 19.0187 73.573 18.5398C72.8948 17.6295 73.189 16.2569 74.2137 15.5634C75.0359 15.0061 75.9625 14.9071 76.9246 15.0123C77.5549 15.0825 78.1204 15.3116 78.5858 15.7533C78.9197 16.0732 79.1597 16.4551 79.3329 16.8947Z" fill="#30253B"/>
<path d="M93.027 11.0151C92.0253 11.0151 91.057 11.0151 90.0782 11.0151C90.0782 8.52173 90.0782 6.0366 90.0782 3.5391C91.0236 3.5391 91.9627 3.5391 92.9206 3.5391C92.9206 3.96636 92.9206 4.38742 92.9206 4.80849C93.1293 4.31312 93.4402 3.91888 93.9223 3.665C94.4002 3.41319 94.9053 3.33888 95.4479 3.40081C95.4479 4.35234 95.4479 5.29148 95.4479 6.2203C95.1849 6.19966 94.9261 6.17283 94.6674 6.16045C93.6448 6.10885 93.0855 6.57326 93.0458 7.5929C93.0041 8.64351 93.0291 9.69617 93.0249 10.7488C93.0249 10.8335 93.027 10.9181 93.027 11.0151Z" fill="#30253B"/>
<path d="M56.4931 22.6182C55.5018 22.6182 54.5251 22.6182 53.5338 22.6182C53.5338 20.1269 53.5338 17.6418 53.5338 15.1422C54.5168 15.1422 55.4976 15.1422 56.4931 15.1422C56.4931 17.6253 56.4931 20.1104 56.4931 22.6182Z" fill="#30253B"/>
<path d="M8.88085 14.0408C8.27564 14.6394 7.67044 15.2359 7.06523 15.8344C6.98175 15.7746 6.8941 15.7209 6.81689 15.6569C6.22003 15.1698 5.52717 15.0522 4.78423 15.1492C4.24163 15.2214 3.79086 15.4918 3.37974 15.8365C3.34635 15.8179 3.30461 15.8076 3.27748 15.7828C2.69314 15.2028 2.11089 14.6228 1.52864 14.0408C2.19437 13.3411 3.01453 12.8994 3.95155 12.6785C5.49796 12.3152 6.94002 12.5732 8.24851 13.4773C8.48016 13.6362 8.67007 13.8509 8.88085 14.0408Z" fill="#DBDCDB"/>
<path d="M13.0656 14.0408C13.675 14.6435 14.2843 15.2441 14.8937 15.8468C14.8207 15.9397 14.7414 16.0285 14.6725 16.1234C14.1862 16.7901 14.0256 17.5208 14.228 18.3217C14.3428 18.7716 14.5911 19.1535 14.8916 19.5044C14.3574 20.0389 13.8252 20.5735 13.291 21.1081C13.2137 21.1866 13.1428 21.2691 13.0677 21.3496C12.2809 20.5384 11.7529 19.5993 11.5943 18.4744C11.4002 17.0915 11.6653 15.8138 12.5 14.6724C12.6691 14.4454 12.8777 14.2513 13.0656 14.0408Z" fill="#DBDCDB"/>
<path d="M19.3378 6.06509C20.2102 6.06716 21.0846 6.07129 21.9569 6.07335C21.9465 7.72666 21.2912 9.07655 19.9931 10.1148C19.1354 10.8 18.1587 11.1819 17.0485 11.2149C16.9462 11.217 16.8461 11.2397 16.7438 11.2521C16.7459 10.3914 16.748 9.52858 16.7501 8.66787C18.1567 8.63278 19.3692 7.53057 19.3378 6.06509Z" fill="#DBDCDB"/>
<path d="M7.11297 4.25423C7.46357 3.89715 7.81208 3.53594 8.16895 3.18298C8.40686 2.94562 8.65729 2.71857 8.90145 2.4874C9.15188 2.7743 9.43571 3.0385 9.64231 3.3543C10.1223 4.08085 10.3644 4.88789 10.4166 5.76099C10.5 7.15629 10.0889 8.37614 9.17693 9.43707C9.09554 9.53202 9.0058 9.61664 8.92024 9.70746C8.37138 9.17081 7.82461 8.63209 7.27575 8.09543C7.20897 8.02938 7.13801 7.96746 7.06914 7.90554C7.54496 7.41017 7.80791 6.81572 7.82669 6.13665C7.84339 5.50711 7.63887 4.93949 7.22357 4.45238C7.1714 4.39665 7.14636 4.32234 7.11297 4.25423Z" fill="#DBDCDB"/>
<path d="M53.3627 13.1285C53.3627 12.8086 53.634 12.3958 54.1453 12.2038C54.7233 11.9891 55.3139 11.9871 55.8899 12.2059C56.3678 12.3875 56.637 12.7467 56.6683 13.2606C56.7017 13.8076 56.491 14.2307 55.988 14.4743C55.3682 14.7736 54.7275 14.7777 54.1014 14.5032C53.6068 14.2885 53.3502 13.8963 53.3627 13.1285Z" fill="#30253B"/>
<path d="M3.90898 6.08056C3.91107 5.3602 4.48288 4.79672 5.21122 4.79465C5.94372 4.79259 6.54267 5.38084 6.53432 6.09088C6.52597 6.80298 5.91451 7.39742 5.1987 7.3871C4.48497 7.37678 3.90481 6.79059 3.90898 6.08056Z" fill="#DC955B"/>
<path d="M3.90896 17.6771C3.90896 16.9526 4.47034 16.3953 5.20285 16.3933C5.95205 16.3912 6.5343 16.9526 6.53221 17.675C6.53221 18.3747 5.93535 18.9713 5.22789 18.9775C4.5079 18.9857 3.90896 18.3975 3.90896 17.6771Z" fill="#75B5A8"/>
<path d="M18.0527 6.08399C18.0527 6.80022 17.4454 7.40292 16.7338 7.39054C16.0138 7.37815 15.4378 6.79815 15.4399 6.08606C15.442 5.35538 16.018 4.78776 16.7567 4.79189C17.4809 4.79602 18.0527 5.3657 18.0527 6.08399Z" fill="#562983"/>
<path d="M16.7504 16.3933C17.4913 16.3933 18.0464 16.9402 18.0485 17.6709C18.0506 18.3975 17.4725 18.9733 16.7379 18.9775C16.0367 18.9816 15.4273 18.3789 15.4315 17.6833C15.4378 16.9506 16.0054 16.3912 16.7504 16.3933Z" fill="#C5D46F"/>
</svg>
