<svg width="182" height="42" viewBox="0 0 182 42" fill="none" xmlns="http://www.w3.org/2000/svg">
<path d="M16.9997 16.7546C15.8616 17.9707 14.4609 18.7854 12.8692 19.2499C7.03944 20.9422 1.2893 17.4591 0.123359 11.5476C0.0875453 11.3626 0.0397933 11.1777 0 10.9927C0 10.2449 0 9.49316 0 8.74537C0.218863 7.92673 0.366099 7.08448 0.664549 6.29734C3.0999 -0.149406 11.6992 -2.10153 16.7132 2.6371C16.8167 2.73549 16.8843 2.86931 16.9679 2.98738C16.5023 3.42818 16.0288 3.86111 15.5711 4.31372C14.8946 4.98673 14.2301 5.67549 13.5576 6.35637C13.4303 6.28553 13.287 6.23043 13.1756 6.13991C11.5361 4.76633 9.23603 4.56167 7.42146 5.6322C5.57505 6.7224 4.64786 8.82408 5.09753 10.9022C5.6228 13.3266 7.99448 14.9874 10.4855 14.7119C11.6515 14.5821 12.6105 14.0704 13.4661 13.3226C13.5974 13.4446 13.7327 13.5627 13.86 13.6847C14.9106 14.7041 15.9571 15.7274 16.9997 16.7546Z" fill="#DC955B"/>
<path d="M0.00146484 30.7725C0.244204 29.9185 0.427253 29.0447 0.741621 28.2182C1.21118 26.9942 1.92348 25.9079 2.91036 25.0185C4.02059 26.1244 5.13083 27.2343 6.24504 28.3402C6.29279 28.3875 6.37238 28.4111 6.44003 28.4426C6.35646 28.5488 6.27687 28.6551 6.18933 28.7535C5.49294 29.5642 5.09501 30.5009 5.00349 31.5597C4.75279 34.5036 7.25977 36.9398 10.1249 36.8375C13.1571 36.7273 15.4811 33.8227 14.7926 30.9063C14.5698 29.9578 14.0644 29.1785 13.4715 28.4347C14.6255 27.2933 15.7795 26.1559 16.9335 25.0145C17.4787 25.6836 18.1233 26.2976 18.5571 27.0336C20.8532 30.8867 20.1727 35.8378 16.9375 38.9589C15.1866 40.6512 13.0736 41.584 10.6104 41.7532C5.31785 42.1232 0.757538 38.2937 0.0890102 33.2993C0.0810515 33.2324 0.0332995 33.1694 0.00544418 33.1064C0.00146484 32.3311 0.00146484 31.5518 0.00146484 30.7725Z" fill="#75B5A8"/>
<path d="M144.084 6.67622C144.86 5.78281 145.728 5.06257 146.89 4.84611C148.784 4.49189 150.586 4.58635 152.003 6.11735C152.89 7.07373 153.32 8.25052 153.519 9.50996C153.599 9.99405 153.619 10.4939 153.623 10.9859C153.631 13.7251 153.627 16.4644 153.627 19.2352C151.756 19.2352 149.898 19.2352 147.984 19.2352C147.984 19.0935 147.984 18.9361 147.984 18.7786C147.976 16.1732 147.98 13.5677 147.952 10.9622C147.948 10.5687 147.837 10.1672 147.713 9.78546C147.554 9.28168 147.136 9.05735 146.631 9.05735C146.122 9.05735 145.68 9.28562 145.545 9.78546C145.389 10.3561 145.278 10.9544 145.27 11.5408C145.242 13.981 145.258 16.4251 145.258 18.8652C145.258 18.9833 145.258 19.1014 145.258 19.243C143.38 19.243 141.521 19.243 139.615 19.243C139.615 19.0856 139.615 18.9282 139.615 18.7708C139.607 16.1653 139.607 13.5598 139.584 10.9544C139.58 10.5726 139.488 10.183 139.365 9.81695C139.19 9.30136 138.796 9.03373 138.306 9.05341C137.793 9.07703 137.371 9.3053 137.244 9.80907C137.104 10.3679 136.993 10.9504 136.989 11.5251C136.961 14.0872 136.977 16.6455 136.977 19.2391C135.107 19.2391 133.252 19.2391 131.366 19.2391C131.366 14.5162 131.366 9.77365 131.366 5.00354C133.205 5.00354 135.063 5.00354 136.957 5.00354C136.957 5.49944 136.957 6.01502 136.957 6.5306C137.797 5.19639 139.003 4.64145 140.547 4.70048C142.059 4.75558 143.221 5.42859 144.084 6.67622Z" fill="#30253B"/>
<path d="M74.3586 41.3629C72.4446 41.3629 70.5982 41.3629 68.7358 41.3629C68.7358 34.8335 68.7358 28.3238 68.7358 21.7865C70.5982 21.7865 72.4565 21.7865 74.3427 21.7865C74.3427 24.085 74.3427 26.3874 74.3427 28.7961C74.4581 28.6623 74.5138 28.6072 74.5616 28.5442C75.437 27.3713 76.6388 26.8597 78.0833 26.8164C79.1458 26.7849 80.1724 26.9109 81.0917 27.4815C82.3213 28.2411 82.8983 29.4258 83.1649 30.7718C83.3002 31.4566 83.3519 32.1651 83.3599 32.8656C83.3798 35.5459 83.3678 38.23 83.3678 40.9103C83.3678 41.0559 83.3678 41.2015 83.3678 41.3668C81.4737 41.3668 79.6193 41.3668 77.7252 41.3668C77.7252 40.9182 77.7252 40.4892 77.7252 40.0562C77.7172 37.7932 77.7172 35.5301 77.6933 33.271C77.6893 32.9168 77.6177 32.5547 77.5103 32.2162C77.2914 31.5275 76.7064 31.1497 75.9902 31.1733C75.258 31.1969 74.7367 31.5472 74.5536 32.2556C74.4263 32.7594 74.3666 33.2868 74.3626 33.8063C74.3427 36.1717 74.3547 38.541 74.3547 40.9103C74.3586 41.052 74.3586 41.1976 74.3586 41.3629Z" fill="#30253B"/>
<path d="M64.8803 12.7935C65.9866 14.0372 67.065 15.2494 68.1712 16.4931C66.7347 17.7722 65.1867 18.8467 63.2965 19.2402C59.5122 20.0274 56.0223 19.3859 53.0975 16.7607C50.8412 14.7378 49.8782 12.1402 50.0533 9.149C50.308 4.81182 53.4517 1.27752 57.9046 0.313267C61.7884 -0.528982 65.2265 0.305395 68.1593 3.08009C67.0809 4.2923 65.9945 5.51631 64.8843 6.76788C63.599 5.37856 62.0192 4.79607 60.1569 4.96531C58.8954 5.07945 57.8329 5.58716 56.9893 6.5278C55.2583 8.45238 55.4533 11.7072 57.4071 13.4665C59.2058 15.0802 62.7633 15.1707 64.8803 12.7935Z" fill="#30253B"/>
<path d="M68.1538 25.1951C67.0714 26.4113 65.9851 27.6353 64.8788 28.8829C63.6293 27.5329 62.0973 26.9387 60.2827 27.0646C58.9854 27.1551 57.8871 27.655 57.0117 28.6074C55.2648 30.5044 55.4359 33.7632 57.3738 35.5501C59.1486 37.1873 62.734 37.3172 64.8748 34.9164C65.9652 36.1443 67.0515 37.3644 68.1618 38.6121C66.6297 39.9817 64.9624 41.0876 62.9289 41.4419C59.268 42.0794 55.8895 41.4182 53.0801 38.8758C50.8318 36.8449 49.8648 34.2552 50.0439 31.2601C50.3025 26.9229 53.4462 23.3886 57.8991 22.4283C61.7869 21.59 65.225 22.4244 68.1538 25.1951Z" fill="#30253B"/>
<path d="M31.9264 19.7041C30.2233 19.649 28.6037 19.2791 27.0995 18.4565C23.3709 16.4139 21.4011 12.3089 22.1293 8.0819C22.8217 4.06351 26.1643 0.812585 30.3028 0.135638C36.2321 -0.83649 41.6798 3.57547 41.8787 9.51057C41.8827 9.6129 41.8708 9.71916 41.8668 9.82543C40.2034 9.82149 38.5361 9.81362 36.8727 9.80969C36.8727 7.75917 35.5755 5.94479 33.6097 5.23636C31.6479 4.53186 29.4592 5.12616 28.1063 6.73194C26.7971 8.28262 26.5941 10.5378 27.6287 12.2735C28.5917 13.891 30.072 14.6585 31.9344 14.7727C31.9304 16.4178 31.9264 18.059 31.9264 19.7041Z" fill="#562983"/>
<path d="M24.9106 25.0184C26.2557 23.5858 27.931 22.716 29.845 22.3382C35.2649 21.2677 40.2311 24.373 41.6159 29.6587C42.9848 34.8853 39.3835 40.5449 34.0472 41.5682C30.5533 42.2373 27.5171 41.3478 24.9186 38.9549C25.0619 38.8014 25.1972 38.644 25.3444 38.4944C26.3591 37.4751 27.3778 36.4557 28.3965 35.4363C28.492 35.5072 28.5875 35.578 28.6831 35.6567C29.6102 36.4242 30.6807 36.8611 31.8864 36.8532C33.8363 36.8375 35.3445 35.9677 36.2796 34.295C37.1909 32.6656 37.1471 30.9693 36.1403 29.3871C35.0977 27.7538 33.5577 26.9784 31.58 27.0768C30.3345 27.1398 29.3277 27.7026 28.4045 28.4661C27.2386 27.313 26.0766 26.1677 24.9106 25.0184Z" fill="#C5D46F"/>
<path d="M123.686 4.98923C125.58 4.98923 127.435 4.98923 129.309 4.98923C129.309 9.74754 129.309 14.4862 129.309 19.2484C127.435 19.2484 125.58 19.2484 123.698 19.2484C123.698 18.7132 123.698 18.1936 123.698 17.6741C123.654 17.6348 123.607 17.5993 123.563 17.56C123.547 17.6308 123.555 17.7135 123.515 17.7686C122.198 19.5475 120.34 19.7837 118.35 19.4137C116.46 19.0634 115.425 17.7607 114.979 15.9936C114.796 15.2615 114.701 14.4901 114.693 13.7344C114.661 10.9794 114.681 8.22441 114.681 5.46545C114.681 5.31589 114.681 5.17027 114.681 4.9971C116.559 4.9971 118.414 4.9971 120.324 4.9971C120.324 5.15059 120.324 5.30802 120.324 5.46939C120.332 8.01581 120.328 10.5622 120.355 13.1047C120.359 13.4983 120.463 13.9037 120.594 14.2815C120.817 14.927 121.346 15.1946 122.003 15.2143C122.691 15.2379 123.237 14.9112 123.432 14.2579C123.591 13.7226 123.674 13.1441 123.678 12.5852C123.706 10.2041 123.69 7.82296 123.69 5.44184C123.686 5.29621 123.686 5.15059 123.686 4.98923Z" fill="#30253B"/>
<path d="M91.1944 19.2554C89.2963 19.2554 87.4499 19.2554 85.5796 19.2554C85.5796 14.4931 85.5796 9.73876 85.5796 4.96864C87.4459 4.96864 89.3003 4.96864 91.1904 4.96864C91.1904 5.51571 91.1904 6.04703 91.1904 6.40125C91.4809 6.16904 91.847 5.86599 92.2251 5.57868C94.9867 3.49668 99.0815 4.91748 99.9092 8.26679C100.092 8.99884 100.18 9.77025 100.192 10.5259C100.224 13.2809 100.204 16.0359 100.204 18.791C100.204 18.9366 100.204 19.0822 100.204 19.2436C98.3095 19.2436 96.4511 19.2436 94.5609 19.2436C94.5609 19.0625 94.5609 18.9051 94.5609 18.7437C94.553 16.2131 94.553 13.6824 94.5291 11.1517C94.5251 10.7699 94.4376 10.3763 94.3182 10.0143C94.0954 9.35306 93.5621 9.01458 92.8578 9.01458C92.1654 9.01458 91.6083 9.35699 91.4213 10.0339C91.274 10.5613 91.2103 11.1241 91.2024 11.6673C91.1785 14.0327 91.1944 16.398 91.1944 18.7673C91.1944 18.9169 91.1944 19.0625 91.1944 19.2554Z" fill="#30253B"/>
<path d="M75.9952 19.5444C73.5519 19.5405 71.3553 18.8517 69.6482 17.061C66.0469 13.2866 67.4277 7.2649 72.3979 5.37181C75.7684 4.08876 79.0752 4.37213 81.9045 6.769C85.9078 10.1577 84.8572 16.5257 80.0064 18.7218C78.745 19.2886 77.5392 19.5365 75.9952 19.5444ZM75.8002 9.07927C74.0294 9.13044 72.8157 10.5749 72.9272 12.3302C73.0465 14.1564 74.495 15.3489 76.4011 15.1521C78.0366 14.9868 79.2304 13.5463 79.0713 11.8855C78.8962 10.1026 77.5193 8.92184 75.8002 9.07927Z" fill="#30253B"/>
<path d="M92.6633 26.8089C95.3135 26.8364 97.6454 27.6275 99.3685 29.7056C102.528 33.5233 100.992 39.1711 96.2487 40.9933C93.2164 42.1583 90.1802 42.0048 87.4544 40.1353C82.7349 36.9001 83.4273 29.9929 88.6521 27.6315C89.9215 27.0608 91.1114 26.8168 92.6633 26.8089ZM92.8464 37.278C94.5376 37.2386 95.8388 35.8768 95.7234 34.031C95.604 32.1458 94.0959 31.0162 92.2534 31.2051C90.6179 31.3704 89.4241 32.807 89.5793 34.4678C89.7465 36.2468 91.1273 37.4315 92.8464 37.278Z" fill="#30253B"/>
<path d="M167.537 14.0063C168.301 15.0178 169.073 16.0371 169.853 17.0683C168.647 18.2726 167.203 18.9732 165.567 19.2959C163.243 19.7525 160.955 19.6698 158.775 18.6584C155.89 17.3202 154.338 14.5573 154.648 11.3694C154.95 8.25619 157.163 5.69009 160.231 4.98166C162.766 4.39523 165.233 4.5566 167.497 5.94985C169.515 7.18961 170.482 9.06302 170.641 11.3654C170.685 11.9715 170.649 12.5855 170.649 13.227C167.008 13.227 163.478 13.227 159.921 13.227C160.036 13.9276 160.478 14.3566 161.023 14.6675C162.662 15.6003 164.354 15.5098 166.041 14.821C166.546 14.6124 167.012 14.2936 167.537 14.0063ZM165.512 10.6255C165.492 9.51169 164.342 8.59073 162.646 8.63009C161.099 8.66551 160.068 9.42511 159.948 10.6255C161.795 10.6255 163.637 10.6255 165.512 10.6255Z" fill="#30253B"/>
<path d="M138.975 35.3598C137.045 35.3598 135.286 35.3598 133.527 35.3598C131.784 35.3598 130.041 35.3598 128.143 35.3598C128.378 35.7337 128.525 36.0721 128.768 36.3201C129.679 37.245 130.853 37.4811 132.099 37.4496C133.436 37.4142 134.025 37.182 135.847 36.1036C136.615 37.119 137.387 38.1384 138.179 39.1853C137.332 40.063 136.325 40.677 135.179 41.0548C132.481 41.9482 129.775 41.9797 127.164 40.8108C122.198 38.5831 121.884 32.6244 124.749 29.3814C126.078 27.8779 127.793 27.0986 129.775 26.8861C131.916 26.6578 133.977 26.9097 135.835 28.0826C137.853 29.3578 138.824 31.2351 138.967 33.5572C139.007 34.1397 138.975 34.73 138.975 35.3598ZM128.275 32.7307C130.129 32.7307 131.983 32.7307 133.838 32.7307C133.822 31.6405 132.684 30.7077 130.981 30.7471C129.433 30.7825 128.41 31.5303 128.275 32.7307Z" fill="#30253B"/>
<path d="M123.285 39.426C122.171 40.4847 120.865 41.1105 119.405 41.4136C116.786 41.9567 114.276 41.6969 111.991 40.221C107.383 37.2456 107.57 30.7674 112.326 28.0321C115.465 26.2256 119.835 26.4184 122.636 28.4925C122.855 28.6539 123.054 28.8349 123.293 29.0317C122.377 30.1377 121.478 31.2239 120.634 32.2394C119.886 31.9048 119.21 31.4955 118.474 31.2869C116.711 30.7831 114.992 31.6333 114.498 33.1957C114.132 34.345 114.287 35.4352 115.131 36.3365C116.042 37.3047 117.216 37.5447 118.466 37.1866C119.19 36.9819 119.863 36.5844 120.638 36.2381C121.458 37.2259 122.366 38.3201 123.285 39.426Z" fill="#30253B"/>
<path d="M100.991 14.9382C102.356 14.6273 103.693 14.3281 105.006 14.029C105.058 14.0723 105.098 14.0881 105.102 14.1077C105.388 15.3554 106.331 15.7962 107.653 15.745C107.903 15.7332 108.178 15.686 108.393 15.5718C108.564 15.4774 108.763 15.257 108.767 15.0877C108.775 14.9224 108.588 14.6588 108.425 14.5918C107.617 14.2573 106.785 13.9936 105.973 13.6709C105.233 13.3796 104.477 13.1002 103.781 12.7184C100.868 11.1245 101.254 7.86566 103.041 6.20872C105.114 4.28414 109.821 4.1031 111.879 6.15755C112.507 6.78333 112.981 7.4957 113.323 8.35369C111.946 8.73546 110.589 9.11329 109.213 9.49899C108.87 8.81024 108.369 8.38125 107.585 8.36944C107.478 8.36944 107.37 8.37337 107.267 8.38912C106.924 8.44028 106.646 8.59771 106.598 8.9598C106.554 9.31008 106.833 9.4557 107.107 9.56197C107.824 9.84534 108.556 10.0815 109.252 10.4003C110.191 10.8332 111.186 11.2189 112.014 11.8171C114.652 13.726 114.294 17.2918 111.369 18.7519C109.726 19.5706 107.971 19.6532 106.184 19.4918C105.074 19.3895 104.016 19.0865 103.08 18.4567C101.855 17.6106 101.21 16.4259 100.991 14.9382Z" fill="#30253B"/>
<path d="M151.272 30.4593C149.959 30.8293 148.67 31.1992 147.373 31.5416C147.277 31.5652 147.082 31.4393 147.015 31.3291C146.605 30.6679 146.008 30.4081 145.248 30.4908C144.905 30.5262 144.623 30.6797 144.559 31.0379C144.496 31.4117 144.794 31.5534 145.081 31.6715C146.334 32.1832 147.607 32.6633 148.845 33.2104C149.709 33.5921 150.461 34.1589 151.022 34.9303C152.466 36.9218 151.69 39.6689 149.35 40.8457C147.711 41.6722 145.952 41.7588 144.169 41.6014C143.059 41.503 142.001 41.1999 141.061 40.5741C139.82 39.7437 139.175 38.559 138.94 37.0556C140.305 36.7447 141.65 36.4416 142.987 36.1386C143.588 37.6145 144.571 38.134 146.071 37.7916C146.39 37.7168 146.7 37.6145 146.744 37.2288C146.788 36.8431 146.485 36.7132 146.203 36.6069C145.128 36.2133 144.042 35.8473 142.971 35.4419C141.929 35.0444 140.966 34.5092 140.289 33.5961C138.996 31.8604 139.557 29.2432 141.511 27.9207C143.079 26.8581 144.846 26.6692 146.68 26.8699C147.882 27.0037 148.96 27.4406 149.848 28.2828C150.484 28.8929 150.942 29.621 151.272 30.4593Z" fill="#30253B"/>
<path d="M177.384 19.248C175.473 19.248 173.627 19.248 171.761 19.248C171.761 14.4937 171.761 9.75504 171.761 4.99279C173.563 4.99279 175.354 4.99279 177.181 4.99279C177.181 5.80749 177.181 6.61038 177.181 7.41327C177.579 6.4687 178.171 5.71697 179.091 5.23287C180.002 4.75271 180.965 4.61103 182 4.7291C182 6.54348 182 8.33424 182 10.1053C181.498 10.066 181.005 10.0148 180.511 9.99118C178.561 9.89279 177.495 10.7783 177.419 12.7226C177.34 14.7259 177.388 16.7331 177.38 18.7403C177.38 18.9017 177.384 19.0631 177.384 19.248Z" fill="#30253B"/>
<path d="M107.721 41.3728C105.831 41.3728 103.969 41.3728 102.079 41.3728C102.079 36.6224 102.079 31.8838 102.079 27.1176C103.953 27.1176 105.823 27.1176 107.721 27.1176C107.721 31.8523 107.721 36.5909 107.721 41.3728Z" fill="#30253B"/>
<path d="M16.9347 25.0174C15.7807 26.1588 14.6267 27.2962 13.4727 28.4376C13.3135 28.3234 13.1464 28.2211 12.9992 28.0991C11.8611 27.1703 10.5399 26.9459 9.12329 27.1309C8.08866 27.2687 7.22912 27.7842 6.4452 28.4415C6.38153 28.4061 6.30194 28.3864 6.25021 28.3392C5.13599 27.2332 4.02576 26.1273 2.91553 25.0174C4.18493 23.6832 5.74881 22.8409 7.53553 22.4198C10.4842 21.7271 13.2339 22.2191 15.729 23.943C16.1707 24.246 16.5328 24.6553 16.9347 25.0174Z" fill="#DBDCDB"/>
<path d="M24.913 25.0174C26.075 26.1666 27.237 27.3119 28.3989 28.4612C28.2596 28.6383 28.1084 28.8075 27.9771 28.9886C27.0499 30.2598 26.7435 31.6531 27.1295 33.1801C27.3484 34.0381 27.8219 34.7662 28.3949 35.4353C27.3762 36.4547 26.3615 37.474 25.3428 38.4934C25.1956 38.6429 25.0603 38.8004 24.917 38.9538C23.4168 37.4071 22.41 35.6163 22.1076 33.4714C21.7375 30.8344 22.2429 28.3982 23.8346 26.2217C24.157 25.7888 24.5549 25.4188 24.913 25.0174Z" fill="#DBDCDB"/>
<path d="M36.8731 9.80933C38.5364 9.81326 40.2038 9.82113 41.8671 9.82507C41.8472 12.9776 40.5977 15.5516 38.1226 17.5312C36.4871 18.8379 34.6247 19.566 32.5077 19.629C32.3128 19.6329 32.1217 19.6762 31.9268 19.6998C31.9307 18.0586 31.9347 16.4135 31.9387 14.7723C34.6208 14.7054 36.9328 12.6037 36.8731 9.80933Z" fill="#DBDCDB"/>
<path d="M13.5631 6.35639C14.2316 5.67551 14.8961 4.98675 15.5766 4.31374C16.0302 3.86113 16.5078 3.4282 16.9733 2.9874C17.4509 3.53446 17.9921 4.03824 18.386 4.64041C19.3013 6.02579 19.7629 7.56466 19.8623 9.22948C20.0215 11.89 19.2376 14.2161 17.4986 16.239C17.3434 16.4201 17.1723 16.5814 17.0092 16.7546C15.9626 15.7313 14.92 14.7041 13.8734 13.6808C13.7461 13.5549 13.6108 13.4368 13.4795 13.3187C14.3868 12.3741 14.8882 11.2406 14.924 9.94579C14.9558 8.74538 14.5659 7.66306 13.774 6.73422C13.6745 6.62796 13.6267 6.48627 13.5631 6.35639Z" fill="#DBDCDB"/>
<path d="M101.752 23.2779C101.752 22.6678 102.27 21.8807 103.245 21.5147C104.347 21.1053 105.473 21.1014 106.571 21.5186C107.483 21.8649 107.996 22.5498 108.056 23.5298C108.119 24.5727 107.717 25.3796 106.758 25.844C105.576 26.4147 104.355 26.4225 103.161 25.8991C102.218 25.4898 101.728 24.742 101.752 23.2779Z" fill="#30253B"/>
<path d="M7.45414 9.83885C7.45812 8.46527 8.54846 7.39082 9.93725 7.38688C11.334 7.38295 12.4761 8.50463 12.4601 9.85852C12.4442 11.2164 11.2783 12.3498 9.91337 12.3302C8.55244 12.3105 7.44619 11.1927 7.45414 9.83885Z" fill="#DC955B"/>
<path d="M7.4541 31.9511C7.4541 30.5697 8.52454 29.507 9.92129 29.5031C11.3499 29.4992 12.4601 30.5697 12.4561 31.9472C12.4561 33.2814 11.318 34.4188 9.96904 34.4306C8.59617 34.4464 7.4541 33.3247 7.4541 31.9511Z" fill="#75B5A8"/>
<path d="M34.423 9.84541C34.423 11.2111 33.2651 12.3603 31.9081 12.3367C30.5352 12.3131 29.4369 11.2072 29.4409 9.84934C29.4449 8.45609 30.5432 7.37376 31.9519 7.38163C33.3327 7.38951 34.423 8.47577 34.423 9.84541Z" fill="#562983"/>
<path d="M31.9398 29.5031C33.3524 29.5031 34.4109 30.5461 34.4149 31.9393C34.4189 33.3247 33.3166 34.4228 31.9159 34.4306C30.5788 34.4385 29.4169 33.2893 29.4248 31.9629C29.4368 30.5657 30.5192 29.4992 31.9398 29.5031Z" fill="#C5D46F"/>
</svg>
