<svg width="15" height="15" viewBox="0 0 15 15" fill="none" xmlns="http://www.w3.org/2000/svg">
<path fill-rule="evenodd" clip-rule="evenodd" d="M7.5 15C6.01664 15 4.56659 14.5601 3.33322 13.736C2.09986 12.9119 1.13857 11.7406 0.570908 10.3701C0.00325078 8.99968 -0.145276 7.49168 0.144113 6.03683C0.433502 4.58197 1.14781 3.24559 2.1967 2.1967C3.2456 1.1478 4.58197 0.433501 6.03682 0.144112C7.49168 -0.145277 8.99968 0.00325555 10.3701 0.570913C11.7406 1.13857 12.9119 2.09985 13.736 3.33322C14.5601 4.56659 15 6.01664 15 7.5C15 9.48913 14.2098 11.3968 12.8033 12.8033C11.3968 14.2098 9.48913 15 7.5 15ZM11.8162 4.83958C11.65 4.67348 11.4246 4.58018 11.1896 4.58018C10.9546 4.58018 10.7292 4.67348 10.5629 4.83958L6.23917 9.16334L4.83584 7.76C4.66999 7.60055 4.44822 7.5125 4.21816 7.51477C3.98811 7.51703 3.76811 7.60941 3.60543 7.77209C3.44275 7.93477 3.35035 8.15478 3.34809 8.38483C3.34583 8.61489 3.43388 8.83665 3.59334 9.0025L5.58125 10.9904C5.76694 11.1514 6.00446 11.24 6.25021 11.24C6.49597 11.24 6.73348 11.1514 6.91917 10.9904L11.8162 6.09333C11.8986 6.01103 11.9639 5.91331 12.0085 5.80574C12.0531 5.69818 12.076 5.5829 12.076 5.46646C12.076 5.35003 12.0531 5.23474 12.0085 5.12717C11.9639 5.01961 11.8986 4.92189 11.8162 4.83958Z" fill="#32CE8D"/>
</svg>
