<svg width="25" height="24" viewBox="0 0 25 24" fill="none" xmlns="http://www.w3.org/2000/svg">
<path fill-rule="evenodd" clip-rule="evenodd" d="M12.4453 23.5636C10.0684 23.5636 7.74493 22.8854 5.76863 21.6148C3.79233 20.3442 2.252 18.5382 1.34241 16.4252C0.432821 14.3122 0.194829 11.9872 0.658533 9.74405C1.12224 7.50094 2.26681 5.4405 3.94752 3.8233C5.62822 2.2061 7.76956 1.10478 10.1008 0.658595C12.432 0.212411 14.8483 0.441421 17.0443 1.31664C19.2402 2.19186 21.1171 3.67398 22.4376 5.57561C23.7582 7.47723 24.463 9.71294 24.463 12C24.463 15.0669 23.1968 18.0081 20.9431 20.1767C18.6893 22.3453 15.6326 23.5636 12.4453 23.5636ZM19.3615 7.89813C19.0951 7.64204 18.7339 7.49819 18.3573 7.49819C17.9808 7.49819 17.6196 7.64204 17.3532 7.89813L10.425 14.5646L8.17635 12.4009C7.91061 12.155 7.55525 12.0193 7.18662 12.0228C6.81799 12.0262 6.46548 12.1687 6.20481 12.4195C5.94413 12.6703 5.79608 13.0095 5.79246 13.3642C5.78883 13.7189 5.92992 14.0609 6.18542 14.3166L9.37077 17.3816C9.66832 17.6298 10.0489 17.7664 10.4427 17.7664C10.8365 17.7664 11.2171 17.6298 11.5146 17.3816L19.3615 9.83118C19.4934 9.70428 19.5981 9.55361 19.6696 9.38777C19.741 9.22193 19.7777 9.04418 19.7777 8.86467C19.7777 8.68515 19.741 8.50738 19.6696 8.34154C19.5981 8.1757 19.4934 8.02503 19.3615 7.89813Z" fill="currentColor"/>
</svg>
