<svg width="146" height="28" viewBox="0 0 146 28" fill="none" xmlns="http://www.w3.org/2000/svg">
<path d="M36.7732 10.8765C36.7732 11.0554 36.6079 11.1813 36.3765 11.2012L34.7041 11.2741C34.4728 11.3006 34.2811 11.1747 34.2811 10.9958L34.248 9.06054C34.1489 5.72031 33.3292 4.96478 31.6237 4.96478C29.9513 4.96478 28.735 6.39631 28.735 8.49058C28.735 10.956 30.4405 12.0098 32.2782 12.9972C34.3802 14.1305 36.6079 15.1379 36.6079 17.9015C36.6079 20.7977 34.5389 22.4546 31.4585 22.4546C27.4196 22.4546 26.0446 19.9892 26.1438 17.7226V16.8146C26.1769 16.6357 26.3752 16.5098 26.5735 16.5098H28.312C28.5433 16.5098 28.7086 16.6622 28.7086 16.8146V17.4906C28.7086 19.3795 29.5283 20.7381 31.2668 20.7381C32.9722 20.7381 33.9572 19.6843 33.9572 17.8949C33.9572 15.7808 31.432 15.0252 29.1978 13.6931C27.5187 12.6924 26.0116 11.3338 26.0116 8.76893C26.0116 5.07082 28.6028 3.15549 31.6568 3.15549C35.233 3.15549 36.9054 4.96478 36.8062 9.09368L36.7732 10.8765Z" fill="#0B1743"/>
<path d="M54.0727 8.338L50.3974 22.0237C50.3643 22.1496 50.1991 22.249 50.0008 22.249H48.0309C47.8656 22.249 47.6673 22.1231 47.6343 21.9972L46.028 13.1628C45.9949 13.0103 45.8958 12.9374 45.8297 12.9374C45.7305 12.9374 45.6644 13.0103 45.6313 13.1628L43.6615 22.017C43.6284 22.143 43.4632 22.2689 43.2649 22.2689H41.2619C41.0967 22.2689 40.8984 22.1695 40.8653 22.0436L37.9568 8.9411C37.9568 8.91459 37.9568 8.88808 37.9568 8.88808C37.9568 8.78866 38.0559 8.70914 38.1881 8.70914L39.7283 8.65612C39.9267 8.65612 40.0919 8.78204 40.0919 8.90796L42.194 18.869C42.227 19.0214 42.2931 19.0943 42.3923 19.0943C42.4915 19.0943 42.5576 19.0214 42.5906 18.869L44.263 10.2136C44.2961 10.0611 44.4944 9.96172 44.6596 9.96172L46.8939 9.9087C47.0592 9.9087 47.2575 10.0346 47.2905 10.1605L49.0621 18.6901C49.0621 18.8425 49.1612 18.9154 49.2604 18.9154C49.3596 18.9154 49.4257 18.8425 49.4587 18.6901L51.9508 8.37114C51.9838 8.2187 52.1491 8.11929 52.3474 8.11929H53.8546C53.9868 8.11929 54.0859 8.19219 54.0859 8.27172C54.0727 8.31149 54.0727 8.338 54.0727 8.338Z" fill="#0B1743"/>
<path d="M64.0147 22.9318C64.0147 23.0047 63.9156 23.0577 63.8164 23.0842H61.8135C61.7143 23.0842 61.6152 23.0113 61.6152 22.9318L61.5821 22.1763C60.498 22.8059 59.6784 23.0842 58.7926 23.0842C56.3005 23.0842 54.3967 21.9244 54.3967 18.8294C54.3967 15.7079 56.598 14.0974 59.2223 14.0974C59.6453 14.0974 60.3394 14.2233 61.3904 14.6475L61.3574 13.5407C61.2913 11.3006 60.8021 10.5186 59.2553 10.5186C57.6159 10.5186 56.9285 11.7778 56.9285 13.0834V13.5871C56.9285 13.66 56.8624 13.713 56.7302 13.713H54.5289C54.4628 13.713 54.4298 13.6865 54.4298 13.6136V13.2888C54.3637 10.8765 56.6641 8.63638 59.4801 8.63638C61.7804 8.63638 63.7437 9.54434 63.7767 12.0561L64.0147 22.9318ZM61.4565 16.9406C60.9674 16.3375 60.2072 15.8868 59.2553 15.8868C57.5168 15.8868 56.6971 17.1924 56.6971 18.6306C56.6971 20.0157 57.5498 21.4472 59.1892 21.4472C60.1741 21.4472 61.0269 20.9701 61.5491 20.2145L61.4565 16.9406Z" fill="#0B1743"/>
<path d="M71.2067 22.5272C70.3539 22.5272 69.5673 22.2489 68.6815 21.6723L68.7807 26.729C68.7807 26.8284 68.6485 26.9278 68.4832 26.9278H66.6125C66.4472 26.9278 66.315 26.8284 66.315 26.729L66.0176 8.51679C66.0176 8.41737 66.1498 8.31796 66.282 8.31796H68.1858C68.351 8.31796 68.4502 8.39086 68.4502 8.51679L68.4832 10.0013C69.369 9.07349 70.2217 8.6162 71.438 8.6162C74.0623 8.6162 75.8008 10.0477 75.8008 15.6612C75.8008 20.9167 73.3352 22.5272 71.2067 22.5272ZM70.8761 10.505C69.5938 10.505 68.8402 11.1611 68.5163 11.9167L68.6485 19.4918C68.9459 20.148 69.4682 20.6715 70.4861 20.6715C72.5552 20.6715 73.3087 19.6641 73.3087 15.5883C73.3021 12.3607 72.8791 10.505 70.8761 10.505Z" fill="#0B1743"/>
<path d="M91.679 21.248C91.679 21.4004 91.5138 21.5529 91.2824 21.5529L89.7422 21.6059C89.5109 21.6059 89.3456 21.48 89.3456 21.3275L89.2531 6.82668C89.2531 6.75378 89.2531 6.70076 89.2531 6.70076C89.22 6.70076 89.22 6.75378 89.187 6.82668L85.743 20.5124C85.7099 20.6913 85.5116 20.8172 85.2869 20.8172L83.7797 20.7642C83.5484 20.7377 83.3236 20.6118 83.2906 20.4395L79.6351 6.97912C79.6351 6.90621 79.602 6.85319 79.602 6.85319C79.569 6.85319 79.569 6.90621 79.569 6.97912L79.7342 22.1228C79.7342 22.3018 79.569 22.4277 79.3376 22.4277H77.8966C77.6652 22.4277 77.4999 22.3018 77.4999 22.1228L77.3016 4.36128C77.3016 4.18233 77.4669 4.05641 77.6983 4.05641L80.7853 3.90398C80.8183 3.90398 80.8183 3.90398 80.8183 3.90398C81.0166 3.90398 81.2414 4.0299 81.2744 4.18233L84.5201 16.231C84.5201 16.3039 84.5531 16.3304 84.5862 16.3304C84.6192 16.3304 84.6523 16.3039 84.6523 16.2045L87.8715 3.44669C87.9046 3.26775 88.1029 3.14183 88.3276 3.14183L91.1833 3.08881C91.1833 3.08881 91.1833 3.08881 91.2163 3.08881C91.4146 3.08881 91.5799 3.24124 91.5799 3.39367L91.679 21.248Z" fill="#0B1743"/>
<path d="M99.2266 23.6076C98.6053 25.7946 96.8667 27.0803 94.7316 27.0803C93.9119 27.0803 93.5484 26.9279 93.5484 26.7556L93.4823 25.5759C93.4823 25.4235 93.6145 25.271 93.7467 25.271C93.8789 25.271 93.978 25.397 94.6655 25.397C96.014 25.397 96.7015 24.2173 97.1576 22.905L97.3559 22.2754L93.1584 9.04043C93.1253 8.91451 93.2245 8.76208 93.4228 8.76208L95.3596 8.63616C95.5249 8.63616 95.7232 8.73557 95.7562 8.888L98.5788 18.3719L100.939 8.76208C100.972 8.60965 101.137 8.51023 101.335 8.51023L103.14 8.45721C103.338 8.45721 103.437 8.55663 103.404 8.70906L99.2266 23.6076Z" fill="#0B1743"/>
<path d="M112.752 12.9441V13.2225C114.854 13.9051 115.805 15.2638 115.805 16.8676C115.805 19.3065 113.247 21.5996 109.308 21.4472C109.308 21.4472 108.223 21.4472 105.302 21.2947C105.103 21.2947 104.971 21.1688 104.971 21.0429L105.037 3.02949C105.037 2.90357 105.17 2.77765 105.335 2.77765C107.926 2.77765 109.896 2.80416 109.896 2.80416C113.571 2.83067 115.964 4.99122 115.964 7.76149C115.964 10.6047 114.854 12.4869 112.752 12.9441ZM110.55 4.61345H107.992C107.662 4.61345 107.437 4.86529 107.437 5.09063L107.371 11.5325C107.371 11.7843 107.635 11.9832 107.959 11.9832L110.028 11.9567C112.295 11.9302 113.34 10.598 113.34 8.28506C113.34 5.54792 112.13 4.61345 110.55 4.61345ZM110.326 13.8985L107.999 13.872C107.668 13.872 107.41 14.0708 107.41 14.3227V18.9552C107.41 19.1806 107.642 19.4324 107.966 19.4589L110.134 19.5119C111.482 19.565 113.089 18.6835 113.089 16.6423C113.082 14.6275 111.37 13.925 110.326 13.8985Z" fill="#0B1743"/>
<path d="M119.151 7.55599C118.266 7.55599 117.545 6.99928 117.545 6.32328C117.545 5.64728 118.266 5.09058 119.151 5.09058C120.037 5.09058 120.758 5.64728 120.758 6.32328C120.758 6.99928 120.037 7.55599 119.151 7.55599ZM120.434 22.7527C120.434 22.9051 120.269 23.0576 120.037 23.0576L118.431 23.0841C118.199 23.0841 118.034 22.9582 118.034 22.7792L117.968 9.47132C117.968 9.29238 118.133 9.16645 118.365 9.16645L119.905 9.21947C120.103 9.21947 120.302 9.3454 120.302 9.52434L120.434 22.7527Z" fill="#0B1743"/>
<path d="M125.384 21.9974C125.417 22.1498 125.219 22.3023 125.02 22.3023L123.381 22.3288C123.183 22.3288 122.984 22.2028 122.984 22.0239L122.753 3.88459C122.753 3.73215 122.918 3.57972 123.15 3.60623L124.69 3.63274C124.921 3.63274 125.087 3.78517 125.087 3.93761L125.384 21.9974Z" fill="#0B1743"/>
<path d="M130.177 21.9974C130.21 22.1498 130.011 22.3023 129.813 22.3023L128.174 22.3288C127.975 22.3288 127.777 22.2028 127.777 22.0239L127.546 3.88459C127.546 3.73215 127.711 3.57972 127.942 3.60623L129.482 3.63274C129.714 3.63274 129.879 3.78517 129.879 3.93761L130.177 21.9974Z" fill="#0B1743"/>
<path d="M141.336 13.8256C141.336 13.9515 141.17 14.051 141.005 14.051L139.333 14.0244C138.877 14.0244 139.002 13.5208 139.002 13.3484C139.035 11.3602 138.87 9.84915 136.966 9.84915C135.75 9.84915 134.765 10.6312 134.765 11.9103C134.765 13.4942 135.882 14.1504 137.191 14.7004C138.963 15.4825 141.065 16.0856 141.065 18.7233C141.065 20.738 138.996 22.1232 136.57 22.1232C133.846 22.1232 131.942 20.7646 132.075 18.3522C132.075 18.1732 131.975 17.6497 132.471 17.6497L134.243 17.7027C134.573 17.7027 134.606 17.7292 134.606 17.928V18.2064C134.639 19.3131 134.97 20.4464 136.477 20.4464C137.726 20.4464 138.546 19.7439 138.546 18.7631C138.546 17.2056 136.642 16.9008 134.937 16.0988C133.529 15.4228 132.213 14.389 132.213 11.9964C132.213 9.75637 134.216 8.073 137.105 8.073C140.483 8.073 141.501 9.9088 141.369 12.752L141.336 13.8256Z" fill="#0B1743"/>
<path d="M145.195 4.99099C145.632 5.4284 145.85 5.95859 145.85 6.57495C145.85 7.1913 145.632 7.72149 145.195 8.1589C144.759 8.59632 144.23 8.82165 143.609 8.82165C142.988 8.82165 142.459 8.60294 142.029 8.16553C141.599 7.72812 141.381 7.20455 141.381 6.5882C141.381 5.97185 141.599 5.44165 142.036 4.99761C142.472 4.55358 143.001 4.33487 143.616 4.33487C144.23 4.33487 144.759 4.55358 145.195 4.99099ZM144.898 7.80765C145.228 7.46302 145.394 7.05212 145.394 6.56832C145.394 6.08451 145.222 5.66699 144.871 5.32236C144.521 4.97773 144.105 4.79879 143.616 4.79879C143.126 4.79879 142.71 4.97773 142.36 5.32899C142.009 5.68024 141.837 6.09777 141.837 6.5882C141.837 7.07863 142.009 7.49616 142.353 7.84079C142.697 8.18541 143.113 8.36436 143.616 8.36436C144.111 8.36436 144.534 8.18541 144.885 7.82753H144.164L143.629 7.05212H143.358V7.82753H142.677V5.3091H143.675C144.072 5.3091 144.356 5.37538 144.521 5.51455C144.693 5.65373 144.772 5.87244 144.772 6.17067C144.772 6.54181 144.607 6.79365 144.27 6.93945L144.898 7.80765ZM144.012 6.40926C144.072 6.35624 144.098 6.27671 144.098 6.16404C144.098 6.05138 144.072 5.97185 144.006 5.92546C143.946 5.87906 143.84 5.85918 143.695 5.85918H143.358V6.48879H143.688C143.84 6.48879 143.953 6.46228 144.012 6.40926Z" fill="#0B1743"/>
<path fill-rule="evenodd" clip-rule="evenodd" d="M5.78616 8.41642C6.82662 7.75685 8.51736 7.32023 11.4529 7.32952L10.9884 5.86173C10.9884 5.77812 11.0256 5.74096 11.0999 5.72238L15.0945 7.98909C15.2618 8.0727 15.2618 8.18418 15.1224 8.31423L11.871 11.1848C11.6945 11.1848 11.5644 11.1197 11.518 10.9525L11.713 9.11315C10.2267 9.17818 8.61026 9.82847 6.85449 10.9525L5.78616 8.41642Z" fill="#0B1743"/>
<path fill-rule="evenodd" clip-rule="evenodd" d="M15.2237 15.9693C14.1832 16.6289 12.4925 17.0655 9.55689 17.0562L10.0214 18.524C10.0214 18.6076 9.98423 18.6448 9.90991 18.6634L5.9153 16.3966C5.74808 16.313 5.74808 16.2016 5.88743 16.0715L9.13885 13.201C9.31536 13.201 9.44542 13.266 9.49187 13.4332L9.29678 15.2726C10.7831 15.2076 12.3996 14.5573 14.1553 13.4332L15.2237 15.9693Z" fill="#0B1743"/>
<path d="M20.0172 1.8765L20.008 1.7836C20.008 1.56064 19.9336 1.35627 19.7757 1.19834C19.6085 1.02183 19.3763 0.919647 19.1254 0.919647C19.0976 0.919647 19.0418 0.919647 19.0047 0.928937C18.9303 0.928937 18.8467 0.938227 18.7724 0.947517C12.6504 2.17377 6.56563 2.65684 0.917441 2.99127C0.675907 3.00056 0.443662 3.10275 0.304315 3.24209C0.08136 3.43718 -0.0301175 3.71587 0.00704167 3.98528C0.313605 7.25528 0.601588 9.54057 0.880282 11.7515C1.27045 14.9194 1.61418 17.6598 1.91145 22.3698C1.92074 22.5834 2.01364 22.7785 2.14369 22.9086C2.31091 23.113 2.57102 23.2244 2.82185 23.2244C2.8683 23.2244 2.90546 23.2244 2.95191 23.2151C9.2318 22.5556 14.4805 22.0539 19.9708 22.2397C20.3888 22.2769 20.7883 22.0075 20.8533 21.6823C20.9184 21.543 20.9369 21.3943 20.9276 21.2457C20.2867 13.1822 20.1194 10.4324 20.0172 1.8765ZM18.9118 20.4282C13.7374 20.3074 8.6001 20.7812 3.75083 21.3014C3.47213 17.0932 3.15628 14.65 2.80327 11.8352C2.54315 9.82856 2.28304 7.74764 1.99506 4.76562C6.45416 4.48693 12.2231 4.02244 18.085 2.93553C18.1779 10.5439 18.3451 13.0242 18.9118 20.4282Z" fill="#0B1743"/>
</svg>
