<svg width="11" height="11" viewBox="0 0 11 11" fill="none" xmlns="http://www.w3.org/2000/svg">
<path d="M9.77836 4.8125H9.24265V3.26562C9.24265 1.46523 7.72033 0 5.84979 0C3.97926 0 2.45694 1.46523 2.45694 3.26562V4.8125H1.92122C1.3297 4.8125 0.849792 5.27441 0.849792 5.84375V9.96875C0.849792 10.5381 1.3297 11 1.92122 11H9.77836C10.3699 11 10.8498 10.5381 10.8498 9.96875V5.84375C10.8498 5.27441 10.3699 4.8125 9.77836 4.8125ZM6.74265 8.42188C6.74265 8.89668 6.3431 9.28125 5.84979 9.28125C5.35649 9.28125 4.95694 8.89668 4.95694 8.42188V7.39062C4.95694 6.91582 5.35649 6.53125 5.84979 6.53125C6.3431 6.53125 6.74265 6.91582 6.74265 7.39062V8.42188ZM7.45694 4.8125H4.24265V3.26562C4.24265 2.4127 4.96363 1.71875 5.84979 1.71875C6.73595 1.71875 7.45694 2.4127 7.45694 3.26562V4.8125Z" fill="currentColor"/>
</svg>
