<svg width="45" height="28" viewBox="0 0 45 28" fill="none" xmlns="http://www.w3.org/2000/svg">
<path d="M9.42575 14.2141C9.41246 14.2274 9.38589 14.2584 9.37261 14.2717C9.48332 14.5552 9.34161 14.8521 9.32389 15.14C9.30618 15.6583 9.15118 16.1633 9.1689 16.6861C9.16447 16.8544 9.12904 17.0228 9.08476 17.1823C9.11133 17.1911 9.16004 17.2044 9.18218 17.2133C8.97847 17.3329 8.81462 17.5101 8.59319 17.5987C8.44262 17.6518 8.25663 17.5544 8.26106 17.3816C8.23449 16.6506 8.34963 15.9241 8.36734 15.1932C8.39391 14.821 8.39834 14.3958 8.67291 14.1078C8.81905 13.9705 9.0139 13.8287 9.22647 13.8597C9.38589 13.8996 9.37704 14.0901 9.42575 14.2141Z" fill="#FF0606"/>
<path d="M9.16434 12.7824C9.02705 12.7646 8.87206 12.6893 8.87206 12.5254C8.87648 12.1932 9.15105 11.9407 9.43004 11.8078C9.52304 11.7635 9.6249 11.7812 9.72675 11.79C9.76661 11.9229 9.85518 12.0647 9.79761 12.2065C9.69133 12.4856 9.41233 12.6406 9.16434 12.7824Z" fill="#FF0606"/>
<path d="M7.6275 14.4218C7.54336 14.599 7.60979 14.8072 7.52122 14.98C7.48136 15.1527 7.44151 15.3255 7.43265 15.5027C7.37951 15.7154 7.33965 15.9324 7.30865 16.1495C7.42822 16.3223 7.31751 16.5172 7.24665 16.6855C7.21566 16.8495 7.16694 17.0267 7.2378 17.1861C7.14923 17.3146 7.11823 17.4741 7.09609 17.6247C6.98537 18.4797 6.8968 19.3347 6.75066 20.1853C6.71524 20.358 6.67538 20.5707 6.50267 20.6593C6.31667 20.7745 6.02882 20.7169 5.95354 20.4909C5.76311 19.791 5.70997 19.06 5.53726 18.3557C5.51954 18.0367 5.44426 17.7266 5.40883 17.4076C5.30698 16.7697 5.23169 16.1274 5.11212 15.4939C5.07227 15.1616 5.03684 14.8294 4.95713 14.506C4.90398 14.3686 4.8907 14.218 4.87741 14.0718C4.83313 14.0319 4.79327 13.9921 4.74899 13.9478C4.59399 14.2047 4.46999 14.4749 4.39471 14.7629C4.315 15.0907 4.14671 15.3875 4.036 15.7065C3.90315 15.8483 3.69058 15.928 3.50458 15.8438C3.3673 15.773 3.26102 15.609 3.31859 15.4496C3.56658 14.6433 3.88986 13.8636 4.12014 13.0529C4.253 12.6675 4.37257 12.2776 4.50985 11.8967C4.58071 11.684 4.80656 11.529 5.03241 11.5688C5.24941 11.5777 5.39555 11.7859 5.4354 11.9853C5.52397 12.4017 5.56826 12.827 5.6524 13.2434C5.76311 13.6864 5.74983 14.1516 5.89154 14.5857C5.93582 14.7142 5.97125 14.8471 5.99782 14.98C6.01111 15.2148 6.06868 15.4407 6.13068 15.6666C6.09525 15.835 6.09968 16.0033 6.17496 16.1628C6.1971 16.4507 6.19267 16.752 6.31667 17.0222C6.40524 16.7786 6.40081 16.5128 6.44953 16.2603C6.60452 15.2768 6.75952 14.2889 6.98095 13.3187C7.23337 12.2688 7.52565 11.2277 7.80464 10.1822C8.18549 9.09688 8.57963 8.01595 8.98705 6.93502C9.17305 6.47872 9.30147 5.95155 9.71332 5.63701C10.0809 5.32248 10.7363 5.56613 10.8072 6.04458C10.8957 6.35911 10.7053 6.64263 10.5326 6.88186C10.103 7.23183 9.80189 7.7147 9.5849 8.22416C9.45647 8.52983 9.3059 8.82221 9.22176 9.14561C9.03134 9.5576 8.8852 9.98289 8.74348 10.4126C8.65049 10.7892 8.55306 11.1657 8.41578 11.529C8.34049 11.7195 8.35821 11.9277 8.30949 12.1226C7.91093 12.8403 7.77807 13.6421 7.6275 14.4218Z" fill="#FF0606"/>
<path d="M10.4003 13.2702C10.5465 13.1329 10.7457 13.0842 10.9362 13.0576C11.1709 13.0266 11.3701 12.8848 11.5916 12.8095C11.9149 12.6722 12.1097 13.186 11.9104 13.3987C11.689 13.6379 11.3613 13.7797 11.2107 14.0898C10.9583 14.6967 11.0513 15.3656 10.9804 16.0036C10.9539 16.3712 10.5863 16.6415 10.2365 16.6503C10.0106 16.5795 10.015 16.2959 10.0283 16.101C10.0637 15.751 10.0372 15.4011 10.0726 15.0555C10.1479 14.6612 10.1435 14.2625 10.1656 13.8638C10.1877 13.6468 10.2276 13.412 10.4003 13.2702Z" fill="#FF0606"/>
<path d="M15.6744 13.9034C15.5725 13.7617 15.6301 13.58 15.6345 13.4206C15.7187 12.6542 15.7674 11.8789 15.8825 11.1169C15.9401 10.7891 16.2766 10.4347 16.6309 10.5898C16.7726 10.9663 16.5778 11.3473 16.6132 11.7327C16.6265 12.0428 16.6132 12.3529 16.5778 12.6586C16.5158 12.9111 16.5468 13.1769 16.5379 13.4339C16.4936 13.6598 16.2855 13.8104 16.0906 13.9034C15.9622 13.9743 15.7895 14.0186 15.6744 13.9034Z" fill="#FF0606"/>
<path d="M16.1615 9.49576C16.1349 9.0749 16.6221 8.74265 17.0118 8.86669C17.0428 8.942 17.0738 9.01731 17.1048 9.09705C16.9941 9.34957 16.8214 9.59765 16.5645 9.71283C16.4051 9.74827 16.1748 9.69068 16.1615 9.49576Z" fill="#FF0606"/>
<path d="M22.2594 11.9717C22.1576 12.1312 22.0734 12.3129 21.914 12.428C21.6483 12.6362 21.3117 12.6983 20.9973 12.8002C20.4482 12.9818 19.9256 13.2254 19.4208 13.5001C17.9904 14.2399 16.5865 15.0373 15.2491 15.9366C15.0986 16.0385 14.9613 16.1626 14.8151 16.2733C14.7886 16.8049 14.7709 17.341 14.7664 17.8726C14.7487 18.258 14.7886 18.6522 14.7266 19.0377C14.7531 19.1927 14.7709 19.3566 14.7177 19.5117C14.7399 19.5604 14.7576 19.6091 14.7797 19.6623C14.762 19.6844 14.7354 19.7287 14.7177 19.7509C14.7266 19.8129 14.7354 19.8749 14.731 19.9414C14.7443 20.2249 14.8816 20.4996 14.8196 20.7831C14.8373 20.8008 14.8683 20.8407 14.886 20.8584C14.9081 20.9337 14.9347 21.0135 14.9613 21.0888C14.9214 21.1685 14.886 21.2482 14.8506 21.328C14.8816 21.3501 14.948 21.3856 14.979 21.4033C14.9923 21.4432 15.01 21.4786 15.0233 21.5185C15.0056 21.5539 14.9657 21.6204 14.948 21.6514C14.9834 21.7001 15.0189 21.7533 15.0543 21.8064C15.0321 21.8862 15.0144 21.9659 15.01 22.0501C14.9259 22.2096 14.7974 22.3558 14.6159 22.4001C14.39 22.4399 14.111 22.369 14.0003 22.152C13.8143 21.74 13.9029 21.2793 13.9029 20.8407C13.9604 19.5161 13.9472 18.1871 13.9693 16.8625C13.6815 17.0131 13.4379 17.2302 13.181 17.4296C12.3972 18.0276 11.6532 18.6655 10.8871 19.2857C10.6922 19.4319 10.5505 19.6269 10.3689 19.7863C10.0324 20.0521 9.7711 20.3932 9.46996 20.6945C9.11568 21.0356 8.81012 21.4166 8.44255 21.7444C8.20784 22.0368 7.63657 21.9083 7.57457 21.5273C7.53471 21.3989 7.55685 21.2615 7.64099 21.1552C7.94656 20.7388 8.34955 20.411 8.72155 20.0521C9.14668 19.6401 9.61167 19.268 10.0634 18.887C10.5904 18.4352 11.1306 18.0055 11.6665 17.5713C12.0695 17.2789 12.4725 16.9865 12.8755 16.6942C13.2342 16.4239 13.584 16.1448 13.956 15.8968C13.9649 15.724 13.9604 15.5468 13.956 15.374C13.6283 15.6265 13.2209 15.7683 12.809 15.7417C12.5832 15.7107 12.3573 15.5556 12.2998 15.3253C12.2023 14.9886 12.2732 14.6298 12.2422 14.2842C12.2865 13.7703 12.3042 13.2387 12.5212 12.7647C12.7072 12.3926 12.964 12.0249 13.3582 11.861C13.4955 11.8123 13.6637 11.7502 13.801 11.8477C13.894 12.0515 13.7789 12.2951 13.6327 12.4458C13.4379 12.6451 13.336 12.9065 13.243 13.1634C13.1855 13.3362 13.1323 13.5134 13.1766 13.695C13.1412 13.9785 13.088 14.2621 13.1235 14.5456C13.1456 14.6652 13.1987 14.807 13.336 14.8335C13.6283 14.8424 13.8984 14.5988 13.9427 14.3108C14.0933 13.4514 14.1199 12.5787 14.2084 11.7104C14.2483 11.3382 14.8594 11.161 15.0454 11.511C15.0941 12.0249 14.9834 12.5388 14.9613 13.0527C14.9303 13.5488 14.855 14.0406 14.8639 14.5367C14.8594 14.7981 14.8329 15.055 14.8373 15.3164C15.5768 14.8513 16.2987 14.364 17.0737 13.9608C17.8752 13.478 18.7122 13.0438 19.5182 12.5609C19.4163 12.4768 19.2923 12.3882 19.2746 12.2464C19.2392 11.9983 19.2791 11.7458 19.2835 11.4933C19.2746 11.0547 19.3632 10.6117 19.3189 10.1731C19.2923 10.0402 19.1462 10.0358 19.0399 10.0447C18.7786 10.1244 18.6458 10.3858 18.4686 10.5674C18.4199 10.7358 18.3889 10.9041 18.3402 11.0724C18.2959 11.1566 18.3181 11.2408 18.3402 11.325C18.3092 11.3648 18.2782 11.4047 18.2472 11.4446C18.2738 11.5066 18.3004 11.5686 18.3269 11.6306C18.3048 11.6483 18.2649 11.6838 18.2428 11.7015C18.2339 11.8433 18.2251 11.985 18.2428 12.1224C18.2472 12.1932 18.2516 12.2597 18.2605 12.3306C18.2516 12.4236 18.2472 12.5166 18.2472 12.6097C18.1719 12.747 18.1409 12.9242 17.9859 12.9995C17.8265 13.0925 17.6361 13.2033 17.4501 13.1324C17.2907 13.0704 17.304 12.8666 17.3084 12.7248C17.3527 11.9939 17.3704 11.2629 17.4147 10.532C17.4279 10.2706 17.5608 10.0004 17.8044 9.87633C18.0391 9.76115 18.3136 9.77001 18.5661 9.80545C18.8406 9.73457 18.9646 9.44219 19.1905 9.29156C19.4075 9.14094 19.7042 9.0169 19.961 9.14094C20.0983 9.19853 20.1338 9.34915 20.178 9.47763C20.1869 9.54851 20.2002 9.61939 20.209 9.68584C20.1648 9.79216 20.1692 9.89848 20.2002 10.0048C20.2002 10.089 20.2046 10.1687 20.2046 10.2529L20.1736 10.2706C20.1205 10.7092 20.2002 11.1478 20.1692 11.5863C20.1958 11.7547 20.2356 11.9762 20.4172 12.0426C20.7892 11.954 21.0992 11.7192 21.4446 11.5642C21.6439 11.4711 21.8697 11.4977 22.0779 11.542C22.2019 11.6528 22.255 11.8211 22.2594 11.9717Z" fill="#FF0606"/>
<path d="M34.3049 13.9657C34.3093 13.7132 34.3181 13.4341 34.1454 13.2303C33.8487 12.8759 33.2199 12.9113 32.963 13.2968C32.715 12.8892 32.0773 12.8936 31.8028 13.2613C31.7983 13.1683 31.7895 13.0265 31.6566 13.0442C31.5326 13.0575 31.2979 12.9778 31.2846 13.1639C31.2802 13.7531 31.2758 14.3378 31.2891 14.927C31.2979 15.0511 31.4573 15.02 31.5415 15.0245C31.6301 15.0156 31.7939 15.0555 31.8116 14.927C31.8426 14.5283 31.7895 14.1252 31.8382 13.7265C31.9091 13.4164 32.4228 13.3765 32.5158 13.691C32.5778 14.1119 32.5025 14.546 32.5512 14.9713C32.6309 15.0333 32.7372 15.0112 32.8302 15.02C32.9099 15.0112 33.025 15.0378 33.0605 14.9447C33.0915 14.5637 33.0516 14.1828 33.0737 13.8018C33.0782 13.5847 33.3085 13.4252 33.5166 13.4784C33.6494 13.4961 33.7557 13.6157 33.769 13.7486C33.7956 14.1385 33.7557 14.5283 33.7867 14.9182C33.8 15.0466 33.9594 15.0112 34.048 15.02C34.1322 15.0112 34.2872 15.0422 34.296 14.9182C34.3137 14.6036 34.296 14.2847 34.3049 13.9657ZM36.1781 13.1727C35.8106 12.9069 35.2526 12.9202 34.9204 13.2303C34.4244 13.6689 34.4776 14.5903 35.0577 14.9314C35.5316 15.2327 36.311 15.0776 36.4881 14.4973C36.3951 14.3733 36.218 14.3777 36.0807 14.3334C35.9744 14.4751 35.8415 14.6213 35.6511 14.6169C35.3766 14.6479 35.1374 14.4353 35.0976 14.1695C35.5138 14.165 35.9301 14.1695 36.342 14.1695C36.4173 14.165 36.5324 14.1828 36.5324 14.072C36.5501 13.7442 36.4483 13.3765 36.1781 13.1727ZM35.1064 13.8106C35.1551 13.5626 35.3943 13.3721 35.6511 13.4297C35.8548 13.4474 35.9833 13.6246 36.0187 13.8151C35.7131 13.8106 35.412 13.8106 35.1064 13.8106ZM38.8131 12.176C38.6891 12.0608 38.4588 12.1006 38.3038 12.1494C38.2816 12.5038 38.2905 12.8582 38.2994 13.2126C37.9584 12.8715 37.3517 12.9468 37.0461 13.2968C36.714 13.6733 36.6962 14.2891 36.9885 14.6922C37.2675 15.0954 37.9539 15.2238 38.2905 14.8251C38.3082 14.8871 38.2905 14.9757 38.3569 15.0112C38.5119 15.0333 38.6714 15.02 38.8263 14.9979C38.8042 14.0587 38.8485 13.1151 38.8131 12.176ZM37.7768 14.5903C37.2454 14.5593 37.1701 13.6955 37.6395 13.5138C37.7945 13.4518 37.9805 13.474 38.1134 13.5758C38.4809 13.8638 38.2994 14.6479 37.7768 14.5903ZM39.805 13.1151C39.6943 12.9822 39.4773 13.0575 39.3268 13.0575C39.3179 13.0753 39.2958 13.1063 39.2869 13.124C39.2692 13.6689 39.2869 14.2182 39.2781 14.7675C39.2869 14.8473 39.2515 14.9625 39.3401 15.0112C39.4729 15.0333 39.6102 15.0333 39.743 15.0112C39.8493 14.9802 39.805 14.8473 39.8183 14.7675C39.8095 14.2182 39.8272 13.6644 39.805 13.1151ZM39.3843 12.1051C39.1806 12.207 39.1496 12.5259 39.3445 12.6588C39.5349 12.8183 39.867 12.6721 39.8759 12.424C39.9069 12.1715 39.6013 11.9722 39.3843 12.1051ZM42.1654 13.1018C42.0237 12.9911 41.8244 13.0664 41.6562 13.062C41.6562 13.1018 41.6517 13.1816 41.6473 13.2214C41.355 12.9158 40.8325 12.9424 40.518 13.1949C40.0752 13.5448 40.022 14.2581 40.3453 14.7055C40.6332 15.1175 41.3152 15.2283 41.665 14.8296C41.665 14.8739 41.6606 14.9625 41.6562 15.0068C41.8244 15.0289 42.0016 15.0466 42.1699 15.0112C42.1743 14.3688 42.1876 13.7309 42.1654 13.1018ZM41.1336 14.5903C40.5756 14.5682 40.5136 13.629 41.0406 13.4961C41.1867 13.4562 41.3506 13.4828 41.4702 13.5803C41.8244 13.8727 41.6517 14.6391 41.1336 14.5903ZM42.1654 13.1018C42.0237 12.9911 41.8244 13.0664 41.6562 13.062C41.6562 13.1018 41.6517 13.1816 41.6473 13.2214C41.355 12.9158 40.8325 12.9424 40.518 13.1949C40.0752 13.5448 40.022 14.2581 40.3453 14.7055C40.6332 15.1175 41.3152 15.2283 41.665 14.8296C41.665 14.8739 41.6606 14.9625 41.6562 15.0068C41.8244 15.0289 42.0016 15.0466 42.1699 15.0112C42.1743 14.3688 42.1876 13.7309 42.1654 13.1018ZM41.1336 14.5903C40.5756 14.5682 40.5136 13.629 41.0406 13.4961C41.1867 13.4562 41.3506 13.4828 41.4702 13.5803C41.8244 13.8727 41.6517 14.6391 41.1336 14.5903ZM39.3843 12.1051C39.1806 12.207 39.1496 12.5259 39.3445 12.6588C39.5349 12.8183 39.867 12.6721 39.8759 12.424C39.9069 12.1715 39.6013 11.9722 39.3843 12.1051ZM39.805 13.1151C39.6943 12.9822 39.4773 13.0575 39.3268 13.0575C39.3179 13.0753 39.2958 13.1063 39.2869 13.124C39.2692 13.6689 39.2869 14.2182 39.2781 14.7675C39.2869 14.8473 39.2515 14.9625 39.3401 15.0112C39.4729 15.0333 39.6102 15.0333 39.743 15.0112C39.8493 14.9802 39.805 14.8473 39.8183 14.7675C39.8095 14.2182 39.8272 13.6644 39.805 13.1151ZM38.8131 12.176C38.6891 12.0608 38.4588 12.1006 38.3038 12.1494C38.2816 12.5038 38.2905 12.8582 38.2994 13.2126C37.9584 12.8715 37.3517 12.9468 37.0461 13.2968C36.714 13.6733 36.6962 14.2891 36.9885 14.6922C37.2675 15.0954 37.9539 15.2238 38.2905 14.8251C38.3082 14.8871 38.2905 14.9757 38.3569 15.0112C38.5119 15.0333 38.6714 15.02 38.8263 14.9979C38.8042 14.0587 38.8485 13.1151 38.8131 12.176ZM37.7768 14.5903C37.2454 14.5593 37.1701 13.6955 37.6395 13.5138C37.7945 13.4518 37.9805 13.474 38.1134 13.5758C38.4809 13.8638 38.2994 14.6479 37.7768 14.5903ZM36.1781 13.1727C35.8106 12.9069 35.2526 12.9202 34.9204 13.2303C34.4244 13.6689 34.4776 14.5903 35.0577 14.9314C35.5316 15.2327 36.311 15.0776 36.4881 14.4973C36.3951 14.3733 36.218 14.3777 36.0807 14.3334C35.9744 14.4751 35.8415 14.6213 35.6511 14.6169C35.3766 14.6479 35.1374 14.4353 35.0976 14.1695C35.5138 14.165 35.9301 14.1695 36.342 14.1695C36.4173 14.165 36.5324 14.1828 36.5324 14.072C36.5501 13.7442 36.4483 13.3765 36.1781 13.1727ZM35.1064 13.8106C35.1551 13.5626 35.3943 13.3721 35.6511 13.4297C35.8548 13.4474 35.9833 13.6246 36.0187 13.8151C35.7131 13.8106 35.412 13.8106 35.1064 13.8106ZM34.3049 13.9657C34.3093 13.7132 34.3181 13.4341 34.1454 13.2303C33.8487 12.8759 33.2199 12.9113 32.963 13.2968C32.715 12.8892 32.0773 12.8936 31.8028 13.2613C31.7983 13.1683 31.7895 13.0265 31.6566 13.0442C31.5326 13.0575 31.2979 12.9778 31.2846 13.1639C31.2802 13.7531 31.2758 14.3378 31.2891 14.927C31.2979 15.0511 31.4573 15.02 31.5415 15.0245C31.6301 15.0156 31.7939 15.0555 31.8116 14.927C31.8426 14.5283 31.7895 14.1252 31.8382 13.7265C31.9091 13.4164 32.4228 13.3765 32.5158 13.691C32.5778 14.1119 32.5025 14.546 32.5512 14.9713C32.6309 15.0333 32.7372 15.0112 32.8302 15.02C32.9099 15.0112 33.025 15.0378 33.0605 14.9447C33.0915 14.5637 33.0516 14.1828 33.0737 13.8018C33.0782 13.5847 33.3085 13.4252 33.5166 13.4784C33.6494 13.4961 33.7557 13.6157 33.769 13.7486C33.7956 14.1385 33.7557 14.5283 33.7867 14.9182C33.8 15.0466 33.9594 15.0112 34.048 15.02C34.1322 15.0112 34.2872 15.0422 34.296 14.9182C34.3137 14.6036 34.296 14.2847 34.3049 13.9657ZM34.3049 13.9657C34.3093 13.7132 34.3181 13.4341 34.1454 13.2303C33.8487 12.8759 33.2199 12.9113 32.963 13.2968C32.715 12.8892 32.0773 12.8936 31.8028 13.2613C31.7983 13.1683 31.7895 13.0265 31.6566 13.0442C31.5326 13.0575 31.2979 12.9778 31.2846 13.1639C31.2802 13.7531 31.2758 14.3378 31.2891 14.927C31.2979 15.0511 31.4573 15.02 31.5415 15.0245C31.6301 15.0156 31.7939 15.0555 31.8116 14.927C31.8426 14.5283 31.7895 14.1252 31.8382 13.7265C31.9091 13.4164 32.4228 13.3765 32.5158 13.691C32.5778 14.1119 32.5025 14.546 32.5512 14.9713C32.6309 15.0333 32.7372 15.0112 32.8302 15.02C32.9099 15.0112 33.025 15.0378 33.0605 14.9447C33.0915 14.5637 33.0516 14.1828 33.0737 13.8018C33.0782 13.5847 33.3085 13.4252 33.5166 13.4784C33.6494 13.4961 33.7557 13.6157 33.769 13.7486C33.7956 14.1385 33.7557 14.5283 33.7867 14.9182C33.8 15.0466 33.9594 15.0112 34.048 15.02C34.1322 15.0112 34.2872 15.0422 34.296 14.9182C34.3137 14.6036 34.296 14.2847 34.3049 13.9657ZM36.1781 13.1727C35.8106 12.9069 35.2526 12.9202 34.9204 13.2303C34.4244 13.6689 34.4776 14.5903 35.0577 14.9314C35.5316 15.2327 36.311 15.0776 36.4881 14.4973C36.3951 14.3733 36.218 14.3777 36.0807 14.3334C35.9744 14.4751 35.8415 14.6213 35.6511 14.6169C35.3766 14.6479 35.1374 14.4353 35.0976 14.1695C35.5138 14.165 35.9301 14.1695 36.342 14.1695C36.4173 14.165 36.5324 14.1828 36.5324 14.072C36.5501 13.7442 36.4483 13.3765 36.1781 13.1727ZM35.1064 13.8106C35.1551 13.5626 35.3943 13.3721 35.6511 13.4297C35.8548 13.4474 35.9833 13.6246 36.0187 13.8151C35.7131 13.8106 35.412 13.8106 35.1064 13.8106ZM38.8131 12.176C38.6891 12.0608 38.4588 12.1006 38.3038 12.1494C38.2816 12.5038 38.2905 12.8582 38.2994 13.2126C37.9584 12.8715 37.3517 12.9468 37.0461 13.2968C36.714 13.6733 36.6962 14.2891 36.9885 14.6922C37.2675 15.0954 37.9539 15.2238 38.2905 14.8251C38.3082 14.8871 38.2905 14.9757 38.3569 15.0112C38.5119 15.0333 38.6714 15.02 38.8263 14.9979C38.8042 14.0587 38.8485 13.1151 38.8131 12.176ZM37.7768 14.5903C37.2454 14.5593 37.1701 13.6955 37.6395 13.5138C37.7945 13.4518 37.9805 13.474 38.1134 13.5758C38.4809 13.8638 38.2994 14.6479 37.7768 14.5903ZM39.805 13.1151C39.6943 12.9822 39.4773 13.0575 39.3268 13.0575C39.3179 13.0753 39.2958 13.1063 39.2869 13.124C39.2692 13.6689 39.2869 14.2182 39.2781 14.7675C39.2869 14.8473 39.2515 14.9625 39.3401 15.0112C39.4729 15.0333 39.6102 15.0333 39.743 15.0112C39.8493 14.9802 39.805 14.8473 39.8183 14.7675C39.8095 14.2182 39.8272 13.6644 39.805 13.1151ZM39.3843 12.1051C39.1806 12.207 39.1496 12.5259 39.3445 12.6588C39.5349 12.8183 39.867 12.6721 39.8759 12.424C39.9069 12.1715 39.6013 11.9722 39.3843 12.1051ZM42.1654 13.1018C42.0237 12.9911 41.8244 13.0664 41.6562 13.062C41.6562 13.1018 41.6517 13.1816 41.6473 13.2214C41.355 12.9158 40.8325 12.9424 40.518 13.1949C40.0752 13.5448 40.022 14.2581 40.3453 14.7055C40.6332 15.1175 41.3152 15.2283 41.665 14.8296C41.665 14.8739 41.6606 14.9625 41.6562 15.0068C41.8244 15.0289 42.0016 15.0466 42.1699 15.0112C42.1743 14.3688 42.1876 13.7309 42.1654 13.1018ZM41.1336 14.5903C40.5756 14.5682 40.5136 13.629 41.0406 13.4961C41.1867 13.4562 41.3506 13.4828 41.4702 13.5803C41.8244 13.8727 41.6517 14.6391 41.1336 14.5903ZM42.1654 13.1018C42.0237 12.9911 41.8244 13.0664 41.6562 13.062C41.6562 13.1018 41.6517 13.1816 41.6473 13.2214C41.355 12.9158 40.8325 12.9424 40.518 13.1949C40.0752 13.5448 40.022 14.2581 40.3453 14.7055C40.6332 15.1175 41.3152 15.2283 41.665 14.8296C41.665 14.8739 41.6606 14.9625 41.6562 15.0068C41.8244 15.0289 42.0016 15.0466 42.1699 15.0112C42.1743 14.3688 42.1876 13.7309 42.1654 13.1018ZM41.1336 14.5903C40.5756 14.5682 40.5136 13.629 41.0406 13.4961C41.1867 13.4562 41.3506 13.4828 41.4702 13.5803C41.8244 13.8727 41.6517 14.6391 41.1336 14.5903ZM39.3843 12.1051C39.1806 12.207 39.1496 12.5259 39.3445 12.6588C39.5349 12.8183 39.867 12.6721 39.8759 12.424C39.9069 12.1715 39.6013 11.9722 39.3843 12.1051ZM39.805 13.1151C39.6943 12.9822 39.4773 13.0575 39.3268 13.0575C39.3179 13.0753 39.2958 13.1063 39.2869 13.124C39.2692 13.6689 39.2869 14.2182 39.2781 14.7675C39.2869 14.8473 39.2515 14.9625 39.3401 15.0112C39.4729 15.0333 39.6102 15.0333 39.743 15.0112C39.8493 14.9802 39.805 14.8473 39.8183 14.7675C39.8095 14.2182 39.8272 13.6644 39.805 13.1151ZM38.8131 12.176C38.6891 12.0608 38.4588 12.1006 38.3038 12.1494C38.2816 12.5038 38.2905 12.8582 38.2994 13.2126C37.9584 12.8715 37.3517 12.9468 37.0461 13.2968C36.714 13.6733 36.6962 14.2891 36.9885 14.6922C37.2675 15.0954 37.9539 15.2238 38.2905 14.8251C38.3082 14.8871 38.2905 14.9757 38.3569 15.0112C38.5119 15.0333 38.6714 15.02 38.8263 14.9979C38.8042 14.0587 38.8485 13.1151 38.8131 12.176ZM37.7768 14.5903C37.2454 14.5593 37.1701 13.6955 37.6395 13.5138C37.7945 13.4518 37.9805 13.474 38.1134 13.5758C38.4809 13.8638 38.2994 14.6479 37.7768 14.5903ZM36.1781 13.1727C35.8106 12.9069 35.2526 12.9202 34.9204 13.2303C34.4244 13.6689 34.4776 14.5903 35.0577 14.9314C35.5316 15.2327 36.311 15.0776 36.4881 14.4973C36.3951 14.3733 36.218 14.3777 36.0807 14.3334C35.9744 14.4751 35.8415 14.6213 35.6511 14.6169C35.3766 14.6479 35.1374 14.4353 35.0976 14.1695C35.5138 14.165 35.9301 14.1695 36.342 14.1695C36.4173 14.165 36.5324 14.1828 36.5324 14.072C36.5501 13.7442 36.4483 13.3765 36.1781 13.1727ZM35.1064 13.8106C35.1551 13.5626 35.3943 13.3721 35.6511 13.4297C35.8548 13.4474 35.9833 13.6246 36.0187 13.8151C35.7131 13.8106 35.412 13.8106 35.1064 13.8106ZM34.1454 13.2303C33.8487 12.8759 33.2199 12.9113 32.963 13.2968C32.715 12.8892 32.0773 12.8936 31.8028 13.2613C31.7983 13.1683 31.7895 13.0265 31.6566 13.0442C31.5326 13.0575 31.2979 12.9778 31.2846 13.1639C31.2802 13.7531 31.2758 14.3378 31.2891 14.927C31.2979 15.0511 31.4573 15.02 31.5415 15.0245C31.6301 15.0156 31.7939 15.0555 31.8116 14.927C31.8426 14.5283 31.7895 14.1252 31.8382 13.7265C31.9091 13.4164 32.4228 13.3765 32.5158 13.691C32.5778 14.1119 32.5025 14.546 32.5512 14.9713C32.6309 15.0333 32.7372 15.0112 32.8302 15.02C32.9099 15.0112 33.025 15.0378 33.0605 14.9447C33.0915 14.5637 33.0516 14.1828 33.0737 13.8018C33.0782 13.5847 33.3085 13.4252 33.5166 13.4784C33.6494 13.4961 33.7557 13.6157 33.769 13.7486C33.7956 14.1385 33.7557 14.5283 33.7867 14.9182C33.8 15.0466 33.9594 15.0112 34.048 15.02C34.1322 15.0112 34.2872 15.0422 34.296 14.9182C34.3137 14.5992 34.296 14.2802 34.3004 13.9613C34.3093 13.7132 34.3137 13.4341 34.1454 13.2303ZM44.1848 12.424C44.052 11.4007 43.7907 10.3906 43.3478 9.46034C43.0024 8.73381 42.5374 8.05602 41.9396 7.51112C41.2842 6.90864 40.4649 6.49221 39.5969 6.30172C38.7156 6.1068 37.7945 6.14224 36.9177 6.33716C35.815 6.58524 34.7787 7.05926 33.8133 7.64402C32.3032 8.5699 30.9614 9.76158 29.8277 11.126C29.2342 11.8659 28.6497 12.619 28.0696 13.3765C26.3823 11.0197 24.54 8.76482 22.4498 6.75358C20.5456 4.92841 18.4287 3.29372 16.0506 2.13748C14.1464 1.21603 12.0473 0.622405 9.92161 0.679996C8.16793 0.715436 6.40096 1.22489 4.96613 2.24823C3.28331 3.46206 2.06105 5.23408 1.27277 7.139C0.338364 9.41161 -0.0292009 11.888 0.00179852 14.3378C0.0327979 16.5218 0.395934 18.7236 1.20635 20.757C1.91933 22.5511 3.00874 24.2212 4.50557 25.4572C5.91826 26.6268 7.72951 27.2425 9.54519 27.3533C11.4583 27.4685 13.3714 27.0299 15.1339 26.3034C17.0736 25.5015 18.8539 24.3497 20.4836 23.034C23.4196 20.6506 25.8775 17.7401 28.074 14.6789C28.5833 15.339 29.0925 15.9991 29.6107 16.6547C30.2174 17.4256 30.8905 18.1388 31.6256 18.7856C32.8257 19.8444 34.1809 20.757 35.6777 21.3417C36.7804 21.767 37.9894 22.0018 39.1718 21.8334C40.239 21.6917 41.262 21.2088 42.037 20.4557C43.1131 19.4191 43.7198 17.9882 44.0298 16.5484C44.3132 15.1972 44.3575 13.7974 44.1848 12.424ZM19.8459 22.5555C18.2693 23.8137 16.5466 24.9079 14.669 25.6566C12.7736 26.4141 10.6877 26.8084 8.65506 26.4761C7.55237 26.2989 6.48068 25.8958 5.55069 25.2712C4.262 24.3896 3.27445 23.1315 2.54818 21.7626C1.69791 20.1545 1.18863 18.3736 0.949495 16.575C0.630644 14.1296 0.75907 11.6133 1.40563 9.22998C1.97248 7.16558 2.9556 5.15877 4.51 3.65255C5.64369 2.52732 7.15381 1.80966 8.73035 1.57043C10.7675 1.24704 12.8577 1.65904 14.7487 2.42986C17.1976 3.43105 19.3764 4.99929 21.325 6.77573C23.6898 8.93317 25.7225 11.4317 27.5824 14.0321C25.3505 17.1598 22.8528 20.1412 19.8459 22.5555ZM43.4851 14.7099C43.4187 15.7909 43.2194 16.8718 42.8076 17.8774C42.4754 18.6881 41.9971 19.4501 41.3373 20.0304C40.673 20.6152 39.8228 20.9829 38.9415 21.0759C37.9052 21.2 36.8557 20.9652 35.8903 20.5842C34.4156 19.9906 33.0959 19.0647 31.9268 18.0015C31.2669 17.399 30.6602 16.7433 30.1155 16.039C29.5885 15.3744 29.0748 14.7011 28.5523 14.0277C29.1767 13.2214 29.7967 12.4152 30.4344 11.6178C31.5105 10.3286 32.7859 9.2034 34.2163 8.32182C35.1994 7.72376 36.2667 7.23646 37.4048 7.03268C38.3525 6.85991 39.3622 6.93079 40.2479 7.32506C40.9653 7.63959 41.5809 8.16234 42.0414 8.7914C42.6171 9.56666 42.9803 10.4792 43.2061 11.414C43.463 12.4949 43.5471 13.6069 43.4851 14.7099ZM41.6562 13.0575C41.6562 13.0974 41.6517 13.1771 41.6473 13.217C41.355 12.9113 40.8325 12.9379 40.518 13.1904C40.0752 13.5404 40.022 14.2536 40.3453 14.7011C40.6332 15.1131 41.3152 15.2238 41.665 14.8251C41.665 14.8694 41.6606 14.958 41.6562 15.0023C41.8244 15.0245 42.0016 15.0422 42.1699 15.0068C42.1743 14.3733 42.1876 13.7353 42.1654 13.1018C42.0237 12.9911 41.82 13.062 41.6562 13.0575ZM41.1336 14.5903C40.5756 14.5682 40.5136 13.629 41.0406 13.4961C41.1867 13.4562 41.3506 13.4828 41.4702 13.5803C41.8244 13.8727 41.6517 14.6391 41.1336 14.5903ZM39.3843 12.1051C39.1806 12.207 39.1496 12.5259 39.3445 12.6588C39.5349 12.8183 39.867 12.6721 39.8759 12.424C39.9069 12.1715 39.6013 11.9722 39.3843 12.1051ZM39.805 13.1151C39.6943 12.9822 39.4773 13.0575 39.3268 13.0575C39.3179 13.0753 39.2958 13.1063 39.2869 13.124C39.2692 13.6689 39.2869 14.2182 39.2781 14.7675C39.2869 14.8473 39.2515 14.9625 39.3401 15.0112C39.4729 15.0333 39.6102 15.0333 39.743 15.0112C39.8493 14.9802 39.805 14.8473 39.8183 14.7675C39.8095 14.2182 39.8272 13.6644 39.805 13.1151ZM38.8131 12.176C38.6891 12.0608 38.4588 12.1006 38.3038 12.1494C38.2816 12.5038 38.2905 12.8582 38.2994 13.2126C37.9584 12.8715 37.3517 12.9468 37.0461 13.2968C36.714 13.6733 36.6962 14.2891 36.9885 14.6922C37.2675 15.0954 37.9539 15.2238 38.2905 14.8251C38.3082 14.8871 38.2905 14.9757 38.3569 15.0112C38.5119 15.0333 38.6714 15.02 38.8263 14.9979C38.8042 14.0587 38.8485 13.1151 38.8131 12.176ZM37.7768 14.5903C37.2454 14.5593 37.1701 13.6955 37.6395 13.5138C37.7945 13.4518 37.9805 13.474 38.1134 13.5758C38.4809 13.8638 38.2994 14.6479 37.7768 14.5903ZM36.1781 13.1727C35.8106 12.9069 35.2526 12.9202 34.9204 13.2303C34.4244 13.6689 34.4776 14.5903 35.0577 14.9314C35.5316 15.2327 36.311 15.0776 36.4881 14.4973C36.3951 14.3733 36.218 14.3777 36.0807 14.3334C35.9744 14.4751 35.8415 14.6213 35.6511 14.6169C35.3766 14.6479 35.1374 14.4353 35.0976 14.1695C35.5138 14.165 35.9301 14.1695 36.342 14.1695C36.4173 14.165 36.5324 14.1828 36.5324 14.072C36.5501 13.7442 36.4483 13.3765 36.1781 13.1727ZM35.1064 13.8106C35.1551 13.5626 35.3943 13.3721 35.6511 13.4297C35.8548 13.4474 35.9833 13.6246 36.0187 13.8151C35.7131 13.8106 35.412 13.8106 35.1064 13.8106ZM34.1454 13.2303C33.8487 12.8759 33.2199 12.9113 32.963 13.2968C32.715 12.8892 32.0773 12.8936 31.8028 13.2613C31.7983 13.1683 31.7895 13.0265 31.6566 13.0442C31.5326 13.0575 31.2979 12.9778 31.2846 13.1639C31.2802 13.7531 31.2758 14.3378 31.2891 14.927C31.2979 15.0511 31.4573 15.02 31.5415 15.0245C31.6301 15.0156 31.7939 15.0555 31.8116 14.927C31.8426 14.5283 31.7895 14.1252 31.8382 13.7265C31.9091 13.4164 32.4228 13.3765 32.5158 13.691C32.5778 14.1119 32.5025 14.546 32.5512 14.9713C32.6309 15.0333 32.7372 15.0112 32.8302 15.02C32.9099 15.0112 33.025 15.0378 33.0605 14.9447C33.0915 14.5637 33.0516 14.1828 33.0737 13.8018C33.0782 13.5847 33.3085 13.4252 33.5166 13.4784C33.6494 13.4961 33.7557 13.6157 33.769 13.7486C33.7956 14.1385 33.7557 14.5283 33.7867 14.9182C33.8 15.0466 33.9594 15.0112 34.048 15.02C34.1322 15.0112 34.2872 15.0422 34.296 14.9182C34.3137 14.5992 34.296 14.2802 34.3004 13.9613C34.3093 13.7132 34.3137 13.4341 34.1454 13.2303ZM34.3049 13.9657C34.3093 13.7132 34.3181 13.4341 34.1454 13.2303C33.8487 12.8759 33.2199 12.9113 32.963 13.2968C32.715 12.8892 32.0773 12.8936 31.8028 13.2613C31.7983 13.1683 31.7895 13.0265 31.6566 13.0442C31.5326 13.0575 31.2979 12.9778 31.2846 13.1639C31.2802 13.7531 31.2758 14.3378 31.2891 14.927C31.2979 15.0511 31.4573 15.02 31.5415 15.0245C31.6301 15.0156 31.7939 15.0555 31.8116 14.927C31.8426 14.5283 31.7895 14.1252 31.8382 13.7265C31.9091 13.4164 32.4228 13.3765 32.5158 13.691C32.5778 14.1119 32.5025 14.546 32.5512 14.9713C32.6309 15.0333 32.7372 15.0112 32.8302 15.02C32.9099 15.0112 33.025 15.0378 33.0605 14.9447C33.0915 14.5637 33.0516 14.1828 33.0737 13.8018C33.0782 13.5847 33.3085 13.4252 33.5166 13.4784C33.6494 13.4961 33.7557 13.6157 33.769 13.7486C33.7956 14.1385 33.7557 14.5283 33.7867 14.9182C33.8 15.0466 33.9594 15.0112 34.048 15.02C34.1322 15.0112 34.2872 15.0422 34.296 14.9182C34.3137 14.6036 34.296 14.2847 34.3049 13.9657ZM36.1781 13.1727C35.8106 12.9069 35.2526 12.9202 34.9204 13.2303C34.4244 13.6689 34.4776 14.5903 35.0577 14.9314C35.5316 15.2327 36.311 15.0776 36.4881 14.4973C36.3951 14.3733 36.218 14.3777 36.0807 14.3334C35.9744 14.4751 35.8415 14.6213 35.6511 14.6169C35.3766 14.6479 35.1374 14.4353 35.0976 14.1695C35.5138 14.165 35.9301 14.1695 36.342 14.1695C36.4173 14.165 36.5324 14.1828 36.5324 14.072C36.5501 13.7442 36.4483 13.3765 36.1781 13.1727ZM35.1064 13.8106C35.1551 13.5626 35.3943 13.3721 35.6511 13.4297C35.8548 13.4474 35.9833 13.6246 36.0187 13.8151C35.7131 13.8106 35.412 13.8106 35.1064 13.8106ZM38.8131 12.176C38.6891 12.0608 38.4588 12.1006 38.3038 12.1494C38.2816 12.5038 38.2905 12.8582 38.2994 13.2126C37.9584 12.8715 37.3517 12.9468 37.0461 13.2968C36.714 13.6733 36.6962 14.2891 36.9885 14.6922C37.2675 15.0954 37.9539 15.2238 38.2905 14.8251C38.3082 14.8871 38.2905 14.9757 38.3569 15.0112C38.5119 15.0333 38.6714 15.02 38.8263 14.9979C38.8042 14.0587 38.8485 13.1151 38.8131 12.176ZM37.7768 14.5903C37.2454 14.5593 37.1701 13.6955 37.6395 13.5138C37.7945 13.4518 37.9805 13.474 38.1134 13.5758C38.4809 13.8638 38.2994 14.6479 37.7768 14.5903ZM39.805 13.1151C39.6943 12.9822 39.4773 13.0575 39.3268 13.0575C39.3179 13.0753 39.2958 13.1063 39.2869 13.124C39.2692 13.6689 39.2869 14.2182 39.2781 14.7675C39.2869 14.8473 39.2515 14.9625 39.3401 15.0112C39.4729 15.0333 39.6102 15.0333 39.743 15.0112C39.8493 14.9802 39.805 14.8473 39.8183 14.7675C39.8095 14.2182 39.8272 13.6644 39.805 13.1151ZM39.3843 12.1051C39.1806 12.207 39.1496 12.5259 39.3445 12.6588C39.5349 12.8183 39.867 12.6721 39.8759 12.424C39.9069 12.1715 39.6013 11.9722 39.3843 12.1051ZM42.1654 13.1018C42.0237 12.9911 41.8244 13.0664 41.6562 13.062C41.6562 13.1018 41.6517 13.1816 41.6473 13.2214C41.355 12.9158 40.8325 12.9424 40.518 13.1949C40.0752 13.5448 40.022 14.2581 40.3453 14.7055C40.6332 15.1175 41.3152 15.2283 41.665 14.8296C41.665 14.8739 41.6606 14.9625 41.6562 15.0068C41.8244 15.0289 42.0016 15.0466 42.1699 15.0112C42.1743 14.3688 42.1876 13.7309 42.1654 13.1018ZM41.1336 14.5903C40.5756 14.5682 40.5136 13.629 41.0406 13.4961C41.1867 13.4562 41.3506 13.4828 41.4702 13.5803C41.8244 13.8727 41.6517 14.6391 41.1336 14.5903ZM42.1654 13.1018C42.0237 12.9911 41.8244 13.0664 41.6562 13.062C41.6562 13.1018 41.6517 13.1816 41.6473 13.2214C41.355 12.9158 40.8325 12.9424 40.518 13.1949C40.0752 13.5448 40.022 14.2581 40.3453 14.7055C40.6332 15.1175 41.3152 15.2283 41.665 14.8296C41.665 14.8739 41.6606 14.9625 41.6562 15.0068C41.8244 15.0289 42.0016 15.0466 42.1699 15.0112C42.1743 14.3688 42.1876 13.7309 42.1654 13.1018ZM41.1336 14.5903C40.5756 14.5682 40.5136 13.629 41.0406 13.4961C41.1867 13.4562 41.3506 13.4828 41.4702 13.5803C41.8244 13.8727 41.6517 14.6391 41.1336 14.5903ZM39.3843 12.1051C39.1806 12.207 39.1496 12.5259 39.3445 12.6588C39.5349 12.8183 39.867 12.6721 39.8759 12.424C39.9069 12.1715 39.6013 11.9722 39.3843 12.1051ZM39.805 13.1151C39.6943 12.9822 39.4773 13.0575 39.3268 13.0575C39.3179 13.0753 39.2958 13.1063 39.2869 13.124C39.2692 13.6689 39.2869 14.2182 39.2781 14.7675C39.2869 14.8473 39.2515 14.9625 39.3401 15.0112C39.4729 15.0333 39.6102 15.0333 39.743 15.0112C39.8493 14.9802 39.805 14.8473 39.8183 14.7675C39.8095 14.2182 39.8272 13.6644 39.805 13.1151ZM38.8131 12.176C38.6891 12.0608 38.4588 12.1006 38.3038 12.1494C38.2816 12.5038 38.2905 12.8582 38.2994 13.2126C37.9584 12.8715 37.3517 12.9468 37.0461 13.2968C36.714 13.6733 36.6962 14.2891 36.9885 14.6922C37.2675 15.0954 37.9539 15.2238 38.2905 14.8251C38.3082 14.8871 38.2905 14.9757 38.3569 15.0112C38.5119 15.0333 38.6714 15.02 38.8263 14.9979C38.8042 14.0587 38.8485 13.1151 38.8131 12.176ZM37.7768 14.5903C37.2454 14.5593 37.1701 13.6955 37.6395 13.5138C37.7945 13.4518 37.9805 13.474 38.1134 13.5758C38.4809 13.8638 38.2994 14.6479 37.7768 14.5903ZM36.1781 13.1727C35.8106 12.9069 35.2526 12.9202 34.9204 13.2303C34.4244 13.6689 34.4776 14.5903 35.0577 14.9314C35.5316 15.2327 36.311 15.0776 36.4881 14.4973C36.3951 14.3733 36.218 14.3777 36.0807 14.3334C35.9744 14.4751 35.8415 14.6213 35.6511 14.6169C35.3766 14.6479 35.1374 14.4353 35.0976 14.1695C35.5138 14.165 35.9301 14.1695 36.342 14.1695C36.4173 14.165 36.5324 14.1828 36.5324 14.072C36.5501 13.7442 36.4483 13.3765 36.1781 13.1727ZM35.1064 13.8106C35.1551 13.5626 35.3943 13.3721 35.6511 13.4297C35.8548 13.4474 35.9833 13.6246 36.0187 13.8151C35.7131 13.8106 35.412 13.8106 35.1064 13.8106ZM34.3049 13.9657C34.3093 13.7132 34.3181 13.4341 34.1454 13.2303C33.8487 12.8759 33.2199 12.9113 32.963 13.2968C32.715 12.8892 32.0773 12.8936 31.8028 13.2613C31.7983 13.1683 31.7895 13.0265 31.6566 13.0442C31.5326 13.0575 31.2979 12.9778 31.2846 13.1639C31.2802 13.7531 31.2758 14.3378 31.2891 14.927C31.2979 15.0511 31.4573 15.02 31.5415 15.0245C31.6301 15.0156 31.7939 15.0555 31.8116 14.927C31.8426 14.5283 31.7895 14.1252 31.8382 13.7265C31.9091 13.4164 32.4228 13.3765 32.5158 13.691C32.5778 14.1119 32.5025 14.546 32.5512 14.9713C32.6309 15.0333 32.7372 15.0112 32.8302 15.02C32.9099 15.0112 33.025 15.0378 33.0605 14.9447C33.0915 14.5637 33.0516 14.1828 33.0737 13.8018C33.0782 13.5847 33.3085 13.4252 33.5166 13.4784C33.6494 13.4961 33.7557 13.6157 33.769 13.7486C33.7956 14.1385 33.7557 14.5283 33.7867 14.9182C33.8 15.0466 33.9594 15.0112 34.048 15.02C34.1322 15.0112 34.2872 15.0422 34.296 14.9182C34.3137 14.6036 34.296 14.2847 34.3049 13.9657Z" fill="#FF0606"/>
<path d="M9.42575 14.2141C9.41246 14.2274 9.38589 14.2584 9.37261 14.2717C9.48332 14.5552 9.34161 14.8521 9.32389 15.14C9.30618 15.6583 9.15118 16.1633 9.1689 16.6861C9.16447 16.8544 9.12904 17.0228 9.08476 17.1823C9.11133 17.1911 9.16004 17.2044 9.18218 17.2133C8.97847 17.3329 8.81462 17.5101 8.59319 17.5987C8.44262 17.6518 8.25663 17.5544 8.26106 17.3816C8.23449 16.6506 8.34963 15.9241 8.36734 15.1932C8.39391 14.821 8.39834 14.3958 8.67291 14.1078C8.81905 13.9705 9.0139 13.8287 9.22647 13.8597C9.38589 13.8996 9.37704 14.0901 9.42575 14.2141Z" fill="#FFFEFE"/>
<path d="M9.16434 12.7824C9.02705 12.7646 8.87206 12.6893 8.87206 12.5254C8.87648 12.1932 9.15105 11.9407 9.43004 11.8078C9.52304 11.7635 9.6249 11.7812 9.72675 11.79C9.76661 11.9229 9.85518 12.0647 9.79761 12.2065C9.69133 12.4856 9.41233 12.6406 9.16434 12.7824Z" fill="#FFFEFE"/>
<path d="M7.6275 14.4218C7.54336 14.599 7.60979 14.8072 7.52122 14.98C7.48136 15.1527 7.44151 15.3255 7.43265 15.5027C7.37951 15.7154 7.33965 15.9324 7.30865 16.1495C7.42822 16.3223 7.31751 16.5172 7.24665 16.6855C7.21566 16.8495 7.16694 17.0267 7.2378 17.1861C7.14923 17.3146 7.11823 17.4741 7.09609 17.6247C6.98537 18.4797 6.8968 19.3347 6.75066 20.1853C6.71524 20.358 6.67538 20.5707 6.50267 20.6593C6.31667 20.7745 6.02882 20.7169 5.95354 20.4909C5.76311 19.791 5.70997 19.06 5.53726 18.3557C5.51954 18.0367 5.44426 17.7266 5.40883 17.4076C5.30698 16.7697 5.23169 16.1274 5.11212 15.4939C5.07227 15.1616 5.03684 14.8294 4.95713 14.506C4.90398 14.3686 4.8907 14.218 4.87741 14.0718C4.83313 14.0319 4.79327 13.9921 4.74899 13.9478C4.59399 14.2047 4.46999 14.4749 4.39471 14.7629C4.315 15.0907 4.14671 15.3875 4.036 15.7065C3.90315 15.8483 3.69058 15.928 3.50458 15.8438C3.3673 15.773 3.26102 15.609 3.31859 15.4496C3.56658 14.6433 3.88986 13.8636 4.12014 13.0529C4.253 12.6675 4.37257 12.2776 4.50985 11.8967C4.58071 11.684 4.80656 11.529 5.03241 11.5688C5.24941 11.5777 5.39555 11.7859 5.4354 11.9853C5.52397 12.4017 5.56826 12.827 5.6524 13.2434C5.76311 13.6864 5.74983 14.1516 5.89154 14.5857C5.93582 14.7142 5.97125 14.8471 5.99782 14.98C6.01111 15.2148 6.06868 15.4407 6.13068 15.6666C6.09525 15.835 6.09968 16.0033 6.17496 16.1628C6.1971 16.4507 6.19267 16.752 6.31667 17.0222C6.40524 16.7786 6.40081 16.5128 6.44953 16.2603C6.60452 15.2768 6.75952 14.2889 6.98095 13.3187C7.23337 12.2688 7.52565 11.2277 7.80464 10.1822C8.18549 9.09688 8.57963 8.01595 8.98705 6.93502C9.17305 6.47872 9.30147 5.95155 9.71332 5.63701C10.0809 5.32248 10.7363 5.56613 10.8072 6.04458C10.8957 6.35911 10.7053 6.64263 10.5326 6.88186C10.103 7.23183 9.80189 7.7147 9.5849 8.22416C9.45647 8.52983 9.3059 8.82221 9.22176 9.14561C9.03134 9.5576 8.8852 9.98289 8.74348 10.4126C8.65049 10.7892 8.55306 11.1657 8.41578 11.529C8.34049 11.7195 8.35821 11.9277 8.30949 12.1226C7.91093 12.8403 7.77807 13.6421 7.6275 14.4218Z" fill="#FFFEFE"/>
<path d="M10.4003 13.2702C10.5465 13.1329 10.7457 13.0842 10.9362 13.0576C11.1709 13.0266 11.3701 12.8848 11.5916 12.8095C11.9149 12.6722 12.1097 13.186 11.9104 13.3987C11.689 13.6379 11.3613 13.7797 11.2107 14.0898C10.9583 14.6967 11.0513 15.3656 10.9804 16.0036C10.9539 16.3712 10.5863 16.6415 10.2365 16.6503C10.0106 16.5795 10.015 16.2959 10.0283 16.101C10.0637 15.751 10.0372 15.4011 10.0726 15.0555C10.1479 14.6612 10.1435 14.2625 10.1656 13.8638C10.1877 13.6468 10.2276 13.412 10.4003 13.2702Z" fill="#FFFEFE"/>
<path d="M15.6744 13.9034C15.5725 13.7617 15.6301 13.58 15.6345 13.4206C15.7187 12.6542 15.7674 11.8789 15.8825 11.1169C15.9401 10.7891 16.2766 10.4347 16.6309 10.5898C16.7726 10.9663 16.5778 11.3473 16.6132 11.7327C16.6265 12.0428 16.6132 12.3529 16.5778 12.6586C16.5158 12.9111 16.5468 13.1769 16.5379 13.4339C16.4936 13.6598 16.2855 13.8104 16.0906 13.9034C15.9622 13.9743 15.7895 14.0186 15.6744 13.9034Z" fill="#FFFEFE"/>
<path d="M16.1615 9.49576C16.1349 9.0749 16.6221 8.74265 17.0118 8.86669C17.0428 8.942 17.0738 9.01731 17.1048 9.09705C16.9941 9.34957 16.8214 9.59765 16.5645 9.71283C16.4051 9.74827 16.1748 9.69068 16.1615 9.49576Z" fill="#FFFEFE"/>
<path d="M22.2594 11.9717C22.1576 12.1312 22.0734 12.3129 21.914 12.428C21.6483 12.6362 21.3117 12.6983 20.9973 12.8002C20.4482 12.9818 19.9256 13.2254 19.4208 13.5001C17.9904 14.2399 16.5865 15.0373 15.2491 15.9366C15.0986 16.0385 14.9613 16.1626 14.8151 16.2733C14.7886 16.8049 14.7709 17.341 14.7664 17.8726C14.7487 18.258 14.7886 18.6522 14.7266 19.0377C14.7531 19.1927 14.7709 19.3566 14.7177 19.5117C14.7399 19.5604 14.7576 19.6091 14.7797 19.6623C14.762 19.6844 14.7354 19.7287 14.7177 19.7509C14.7266 19.8129 14.7354 19.8749 14.731 19.9414C14.7443 20.2249 14.8816 20.4996 14.8196 20.7831C14.8373 20.8008 14.8683 20.8407 14.886 20.8584C14.9081 20.9337 14.9347 21.0135 14.9613 21.0888C14.9214 21.1685 14.886 21.2482 14.8506 21.328C14.8816 21.3501 14.948 21.3856 14.979 21.4033C14.9923 21.4432 15.01 21.4786 15.0233 21.5185C15.0056 21.5539 14.9657 21.6204 14.948 21.6514C14.9834 21.7001 15.0189 21.7533 15.0543 21.8064C15.0321 21.8862 15.0144 21.9659 15.01 22.0501C14.9259 22.2096 14.7974 22.3558 14.6159 22.4001C14.39 22.4399 14.111 22.369 14.0003 22.152C13.8143 21.74 13.9029 21.2793 13.9029 20.8407C13.9604 19.5161 13.9472 18.1871 13.9693 16.8625C13.6815 17.0131 13.4379 17.2302 13.181 17.4296C12.3972 18.0276 11.6532 18.6655 10.8871 19.2857C10.6922 19.4319 10.5505 19.6269 10.3689 19.7863C10.0324 20.0521 9.7711 20.3932 9.46996 20.6945C9.11568 21.0356 8.81012 21.4166 8.44255 21.7444C8.20784 22.0368 7.63657 21.9083 7.57457 21.5273C7.53471 21.3989 7.55685 21.2615 7.64099 21.1552C7.94656 20.7388 8.34955 20.411 8.72155 20.0521C9.14668 19.6401 9.61167 19.268 10.0634 18.887C10.5904 18.4352 11.1306 18.0055 11.6665 17.5713C12.0695 17.2789 12.4725 16.9865 12.8755 16.6942C13.2342 16.4239 13.584 16.1448 13.956 15.8968C13.9649 15.724 13.9604 15.5468 13.956 15.374C13.6283 15.6265 13.2209 15.7683 12.809 15.7417C12.5832 15.7107 12.3573 15.5556 12.2998 15.3253C12.2023 14.9886 12.2732 14.6298 12.2422 14.2842C12.2865 13.7703 12.3042 13.2387 12.5212 12.7647C12.7072 12.3926 12.964 12.0249 13.3582 11.861C13.4955 11.8123 13.6637 11.7502 13.801 11.8477C13.894 12.0515 13.7789 12.2951 13.6327 12.4458C13.4379 12.6451 13.336 12.9065 13.243 13.1634C13.1855 13.3362 13.1323 13.5134 13.1766 13.695C13.1412 13.9785 13.088 14.2621 13.1235 14.5456C13.1456 14.6652 13.1987 14.807 13.336 14.8335C13.6283 14.8424 13.8984 14.5988 13.9427 14.3108C14.0933 13.4514 14.1199 12.5787 14.2084 11.7104C14.2483 11.3382 14.8594 11.161 15.0454 11.511C15.0941 12.0249 14.9834 12.5388 14.9613 13.0527C14.9303 13.5488 14.855 14.0406 14.8639 14.5367C14.8594 14.7981 14.8329 15.055 14.8373 15.3164C15.5768 14.8513 16.2987 14.364 17.0737 13.9608C17.8752 13.478 18.7122 13.0438 19.5182 12.5609C19.4163 12.4768 19.2923 12.3882 19.2746 12.2464C19.2392 11.9983 19.2791 11.7458 19.2835 11.4933C19.2746 11.0547 19.3632 10.6117 19.3189 10.1731C19.2923 10.0402 19.1462 10.0358 19.0399 10.0447C18.7786 10.1244 18.6458 10.3858 18.4686 10.5674C18.4199 10.7358 18.3889 10.9041 18.3402 11.0724C18.2959 11.1566 18.3181 11.2408 18.3402 11.325C18.3092 11.3648 18.2782 11.4047 18.2472 11.4446C18.2738 11.5066 18.3004 11.5686 18.3269 11.6306C18.3048 11.6483 18.2649 11.6838 18.2428 11.7015C18.2339 11.8433 18.2251 11.985 18.2428 12.1224C18.2472 12.1932 18.2516 12.2597 18.2605 12.3306C18.2516 12.4236 18.2472 12.5166 18.2472 12.6097C18.1719 12.747 18.1409 12.9242 17.9859 12.9995C17.8265 13.0925 17.6361 13.2033 17.4501 13.1324C17.2907 13.0704 17.304 12.8666 17.3084 12.7248C17.3527 11.9939 17.3704 11.2629 17.4147 10.532C17.4279 10.2706 17.5608 10.0004 17.8044 9.87633C18.0391 9.76115 18.3136 9.77001 18.5661 9.80545C18.8406 9.73457 18.9646 9.44219 19.1905 9.29156C19.4075 9.14094 19.7042 9.0169 19.961 9.14094C20.0983 9.19853 20.1338 9.34915 20.178 9.47763C20.1869 9.54851 20.2002 9.61939 20.209 9.68584C20.1648 9.79216 20.1692 9.89848 20.2002 10.0048C20.2002 10.089 20.2046 10.1687 20.2046 10.2529L20.1736 10.2706C20.1205 10.7092 20.2002 11.1478 20.1692 11.5863C20.1958 11.7547 20.2356 11.9762 20.4172 12.0426C20.7892 11.954 21.0992 11.7192 21.4446 11.5642C21.6439 11.4711 21.8697 11.4977 22.0779 11.542C22.2019 11.6528 22.255 11.8211 22.2594 11.9717Z" fill="#FFFEFE"/>
<path d="M10.5193 6.89072C10.0897 7.24069 9.78861 7.72356 9.57161 8.23302C9.44318 8.53869 9.29261 8.83107 9.20847 9.15447C9.01805 9.56646 8.87191 9.99175 8.7302 10.4215C8.6372 10.798 8.53977 11.1746 8.40249 11.5378C8.3272 11.7283 8.34492 11.9365 8.29621 12.1315C7.91093 12.8358 7.77807 13.6421 7.6275 14.4218C7.54336 14.599 7.60979 14.8072 7.52122 14.98C7.48136 15.1527 7.44151 15.3255 7.43265 15.5027C7.37951 15.7154 7.33965 15.9324 7.30865 16.1495C7.42822 16.3223 7.31751 16.5172 7.24665 16.6855C7.21565 16.8495 7.16694 17.0267 7.2378 17.1861C7.14923 17.3146 7.11823 17.4741 7.09609 17.6247C6.98537 18.4797 6.8968 19.3347 6.75066 20.1853C6.71524 20.358 6.67538 20.5707 6.50267 20.6593C6.31667 20.7745 6.02882 20.7169 5.95354 20.4909C5.76311 19.791 5.70997 19.06 5.53726 18.3557C5.51954 18.0367 5.44426 17.7266 5.40883 17.4076C5.30698 16.7697 5.23169 16.1274 5.11212 15.4939C5.07227 15.1616 5.03684 14.8294 4.95713 14.506C4.90398 14.3686 4.8907 14.218 4.87741 14.0718C4.83313 14.0319 4.79327 13.9921 4.74899 13.9478C4.59399 14.2047 4.46999 14.4749 4.39471 14.7629C4.315 15.0907 4.14671 15.3875 4.036 15.7065C3.90315 15.8483 3.69058 15.928 3.50458 15.8438C3.3673 15.773 3.26102 15.609 3.31859 15.4496C3.56658 14.6433 3.88986 13.8636 4.12014 13.0529C4.253 12.6675 4.37257 12.2776 4.50985 11.8967C4.5807 11.684 4.80656 11.529 5.03241 11.5688C5.24941 11.5777 5.39555 11.7859 5.4354 11.9853C5.52397 12.4017 5.56826 12.827 5.6524 13.2434C5.76311 13.6864 5.74983 14.1516 5.89154 14.5857C5.93582 14.7142 5.97125 14.8471 5.99782 14.98C6.01111 15.2148 6.06868 15.4407 6.13068 15.6666C6.09525 15.835 6.09968 16.0033 6.17496 16.1628C6.1971 16.4507 6.19267 16.752 6.31667 17.0222C6.40524 16.7786 6.40081 16.5128 6.44953 16.2603C6.60452 15.2768 6.75952 14.2889 6.98094 13.3187C7.23337 12.2688 7.52565 11.2277 7.80464 10.1822C8.18549 9.09688 8.57963 8.01595 8.98705 6.93502C9.17305 6.47872 9.30147 5.95155 9.71332 5.63701C10.0809 5.32248 10.7363 5.56613 10.8072 6.04458C10.8869 6.36354 10.692 6.65149 10.5193 6.89072Z" fill="#FF0606"/>
<path d="M34.305 13.9657C34.3006 14.2846 34.3139 14.6036 34.3006 14.9226C34.2917 15.0422 34.1367 15.0156 34.0526 15.0245C33.964 15.0156 33.8046 15.051 33.7913 14.9226C33.7603 14.5327 33.8002 14.1429 33.7736 13.753C33.7647 13.6201 33.654 13.5005 33.5212 13.4828C33.313 13.4296 33.0827 13.5891 33.0783 13.8062C33.0562 14.1872 33.0916 14.5682 33.065 14.9491C33.0296 15.0422 32.91 15.0156 32.8347 15.0245C32.7417 15.02 32.6355 15.0377 32.5558 14.9757C32.5026 14.5504 32.5823 14.1163 32.5203 13.6954C32.4273 13.3765 31.9136 13.4163 31.8428 13.7309C31.7985 14.1296 31.8472 14.5327 31.8162 14.9314C31.7985 15.0555 31.6346 15.0156 31.5461 15.0289C31.4619 15.02 31.3025 15.051 31.2936 14.9314C31.2804 14.3467 31.2892 13.7575 31.2892 13.1683C31.3025 12.9866 31.5372 13.0619 31.6612 13.0487C31.7941 13.0309 31.8029 13.1727 31.8073 13.2657C32.0863 12.8936 32.7196 12.8936 32.9676 13.3012C33.2245 12.9158 33.8533 12.8803 34.15 13.2347C34.3139 13.4341 34.3094 13.7132 34.305 13.9657Z" fill="#FFFEFE"/>
<path d="M36.1784 13.1732C35.8108 12.9074 35.2529 12.9207 34.9207 13.2308C34.4247 13.6694 34.4779 14.5908 35.058 14.9319C35.5319 15.2332 36.3113 15.0781 36.4884 14.4978C36.3954 14.3737 36.2183 14.3782 36.081 14.3339C35.9747 14.4756 35.8418 14.6218 35.6514 14.6174C35.3769 14.6484 35.1377 14.4357 35.0979 14.1699C35.5141 14.1655 35.9304 14.1699 36.3423 14.1699C36.4175 14.1655 36.5327 14.1832 36.5327 14.0725C36.5504 13.7447 36.4485 13.377 36.1784 13.1732ZM35.1067 13.8111C35.1554 13.563 35.3946 13.3725 35.6514 13.4301C35.8551 13.4478 35.9836 13.6251 36.019 13.8155C35.7134 13.8111 35.4123 13.8111 35.1067 13.8111Z" fill="#FFFEFE"/>
<path d="M38.8132 12.1759C38.6892 12.0607 38.4589 12.1006 38.3039 12.1493C38.2817 12.5037 38.2906 12.8581 38.2995 13.2125C37.9585 12.8714 37.3518 12.9467 37.0462 13.2967C36.7141 13.6733 36.6963 14.289 36.9886 14.6922C37.2676 15.0953 37.954 15.2238 38.2906 14.8251C38.3083 14.8871 38.2906 14.9757 38.357 15.0111C38.512 15.0333 38.6714 15.02 38.8264 14.9978C38.8043 14.0587 38.8486 13.1151 38.8132 12.1759ZM37.7769 14.5903C37.2455 14.5593 37.1702 13.6954 37.6396 13.5138C37.7946 13.4518 37.9806 13.4739 38.1135 13.5758C38.481 13.8637 38.2995 14.6479 37.7769 14.5903Z" fill="#FFFEFE"/>
<path d="M39.8182 14.7676C39.8049 14.8473 39.8492 14.9802 39.7429 15.0112C39.6101 15.0289 39.4728 15.0334 39.3399 15.0112C39.2514 14.9625 39.2868 14.8473 39.2779 14.7676C39.2868 14.2182 39.2691 13.6733 39.2868 13.124C39.2956 13.1063 39.3178 13.0709 39.3266 13.0576C39.4816 13.0576 39.6942 12.9823 39.8049 13.1152C39.8271 13.6645 39.8093 14.2182 39.8182 14.7676Z" fill="#FFFEFE"/>
<path d="M39.8758 12.4236C39.8669 12.6761 39.5392 12.8223 39.3444 12.6584C39.1495 12.5255 39.1805 12.2065 39.3842 12.1046C39.6012 11.9717 39.9068 12.1711 39.8758 12.4236Z" fill="#FFFEFE"/>
<path d="M42.1651 13.1019C42.0234 12.9912 41.8241 13.0665 41.6558 13.0621C41.6558 13.1019 41.6514 13.1817 41.647 13.2215C41.3547 12.9159 40.8321 12.9424 40.5177 13.195C40.0749 13.5449 40.0217 14.2582 40.345 14.7056C40.6329 15.1176 41.3148 15.2283 41.6647 14.8296C41.6647 14.8739 41.6603 14.9625 41.6558 15.0068C41.8241 15.029 42.0013 15.0467 42.1695 15.0113C42.174 14.3689 42.1873 13.731 42.1651 13.1019ZM41.1333 14.5904C40.5753 14.5683 40.5133 13.6291 41.0403 13.4962C41.1864 13.4563 41.3503 13.4829 41.4698 13.5804C41.8241 13.8728 41.6514 14.6392 41.1333 14.5904Z" fill="#FFFEFE"/>
<path d="M17.1091 9.09705C16.9984 9.34957 16.8256 9.59765 16.5688 9.71283C16.4094 9.7527 16.1747 9.69511 16.1658 9.49576C16.1392 9.0749 16.6264 8.74265 17.0161 8.86669C17.0471 8.942 17.0781 9.01731 17.1091 9.09705Z" fill="#FF0606"/>
<path d="M22.2594 11.9717C22.1576 12.1312 22.0734 12.3129 21.914 12.428C21.6483 12.6362 21.3117 12.6983 20.9973 12.8002C20.4482 12.9818 19.9256 13.2254 19.4208 13.5001C17.9904 14.2399 16.5865 15.0373 15.2491 15.9366C15.0986 16.0385 14.9613 16.1626 14.8151 16.2733C14.7886 16.8049 14.7709 17.341 14.7664 17.8726C14.7487 18.258 14.7886 18.6522 14.7266 19.0377C14.7531 19.1927 14.7709 19.3566 14.7177 19.5117C14.7399 19.5604 14.7576 19.6091 14.7797 19.6623C14.762 19.6844 14.7354 19.7287 14.7177 19.7509C14.7266 19.8129 14.7354 19.8749 14.731 19.9414C14.7443 20.2249 14.8816 20.4996 14.8196 20.7831C14.8373 20.8008 14.8683 20.8407 14.886 20.8584C14.9081 20.9337 14.9347 21.0135 14.9613 21.0888C14.9214 21.1685 14.886 21.2482 14.8506 21.328C14.8816 21.3501 14.948 21.3856 14.979 21.4033C14.9923 21.4432 15.01 21.4786 15.0233 21.5185C15.0056 21.5539 14.9657 21.6204 14.948 21.6514C14.9834 21.7001 15.0189 21.7533 15.0543 21.8064C15.0321 21.8862 15.0144 21.9659 15.01 22.0501C14.9259 22.2096 14.7974 22.3558 14.6159 22.4001C14.39 22.4399 14.111 22.369 14.0003 22.152C13.8143 21.74 13.9029 21.2793 13.9029 20.8407C13.9604 19.5161 13.9472 18.1871 13.9693 16.8625C13.6815 17.0131 13.4379 17.2302 13.181 17.4296C12.3972 18.0276 11.6532 18.6655 10.8871 19.2857C10.6922 19.4319 10.5505 19.6269 10.3689 19.7863C10.0324 20.0521 9.7711 20.3932 9.46996 20.6945C9.11568 21.0356 8.81012 21.4166 8.44255 21.7444C8.20784 22.0368 7.63657 21.9083 7.57457 21.5273C7.53471 21.3989 7.55685 21.2615 7.64099 21.1552C7.94656 20.7388 8.34955 20.411 8.72155 20.0521C9.14668 19.6401 9.61167 19.268 10.0634 18.887C10.5904 18.4352 11.1306 18.0055 11.6665 17.5713C12.0695 17.2789 12.4725 16.9865 12.8755 16.6942C13.2342 16.4239 13.584 16.1448 13.956 15.8968C13.9649 15.724 13.9604 15.5468 13.956 15.374C13.6283 15.6265 13.2209 15.7683 12.809 15.7417C12.5832 15.7107 12.3573 15.5556 12.2998 15.3253C12.2023 14.9886 12.2732 14.6298 12.2422 14.2842C12.2865 13.7703 12.3042 13.2387 12.5212 12.7647C12.7072 12.3926 12.964 12.0249 13.3582 11.861C13.4955 11.8123 13.6637 11.7502 13.801 11.8477C13.894 12.0515 13.7789 12.2951 13.6327 12.4458C13.4379 12.6451 13.336 12.9065 13.243 13.1634C13.1855 13.3362 13.1323 13.5134 13.1766 13.695C13.1412 13.9785 13.088 14.2621 13.1235 14.5456C13.1456 14.6652 13.1987 14.807 13.336 14.8335C13.6283 14.8424 13.8984 14.5988 13.9427 14.3108C14.0933 13.4514 14.1199 12.5787 14.2084 11.7104C14.2483 11.3382 14.8594 11.161 15.0454 11.511C15.0941 12.0249 14.9834 12.5388 14.9613 13.0527C14.9303 13.5488 14.855 14.0406 14.8639 14.5367C14.8594 14.7981 14.8329 15.055 14.8373 15.3164C15.5768 14.8513 16.2987 14.364 17.0737 13.9608C17.8752 13.478 18.7122 13.0438 19.5182 12.5609C19.4163 12.4768 19.2923 12.3882 19.2746 12.2464C19.2392 11.9983 19.2791 11.7458 19.2835 11.4933C19.2746 11.0547 19.3632 10.6117 19.3189 10.1731C19.2923 10.0402 19.1462 10.0358 19.0399 10.0447C18.7786 10.1244 18.6458 10.3858 18.4686 10.5674C18.4199 10.7358 18.3889 10.9041 18.3402 11.0724C18.2959 11.1566 18.3181 11.2408 18.3402 11.325C18.3092 11.3648 18.2782 11.4047 18.2472 11.4446C18.2738 11.5066 18.3004 11.5686 18.3269 11.6306C18.3048 11.6483 18.2649 11.6838 18.2428 11.7015C18.2339 11.8433 18.2251 11.985 18.2428 12.1224C18.2472 12.1932 18.2516 12.2597 18.2605 12.3306C18.2516 12.4236 18.2472 12.5166 18.2472 12.6097C18.1719 12.747 18.1409 12.9242 17.9859 12.9995C17.8265 13.0925 17.6361 13.2033 17.4501 13.1324C17.2907 13.0704 17.304 12.8666 17.3084 12.7248C17.3527 11.9939 17.3704 11.2629 17.4147 10.532C17.4279 10.2706 17.5608 10.0004 17.8044 9.87633C18.0391 9.76115 18.3136 9.77001 18.5661 9.80545C18.8406 9.73457 18.9646 9.44219 19.1905 9.29156C19.4075 9.14094 19.7042 9.0169 19.961 9.14094C20.0983 9.19853 20.1338 9.34915 20.178 9.47763C20.1869 9.54851 20.2002 9.61939 20.209 9.68584C20.1648 9.79216 20.1692 9.89848 20.2002 10.0048C20.2002 10.089 20.2046 10.1687 20.2046 10.2529L20.1736 10.2706C20.1205 10.7092 20.2002 11.1478 20.1692 11.5863C20.1958 11.7547 20.2356 11.9762 20.4172 12.0426C20.7892 11.954 21.0992 11.7192 21.4446 11.5642C21.6439 11.4711 21.8697 11.4977 22.0779 11.542C22.2019 11.6528 22.255 11.8211 22.2594 11.9717Z" fill="#FF0606"/>
<path d="M16.6088 11.7279C16.6221 12.038 16.6088 12.3481 16.5733 12.6537C16.5114 12.9063 16.5424 13.1721 16.5335 13.429C16.4892 13.6549 16.2811 13.8056 16.0862 13.8986C15.9622 13.9695 15.7895 14.0138 15.6744 13.8986C15.5725 13.7568 15.6301 13.5752 15.6345 13.4157C15.7187 12.6493 15.7674 11.8741 15.8825 11.1121C15.9401 10.7843 16.2766 10.4299 16.6309 10.5849C16.7726 10.9615 16.5733 11.3469 16.6088 11.7279Z" fill="#FF0606"/>
<path d="M9.80204 12.2065C9.69132 12.4856 9.41233 12.6406 9.16434 12.7824C9.02705 12.7646 8.87206 12.6893 8.87206 12.5254C8.87648 12.1932 9.15105 11.9407 9.43004 11.8078C9.52304 11.7635 9.6249 11.7812 9.72675 11.79C9.77104 11.9229 9.85961 12.0647 9.80204 12.2065Z" fill="#FF0606"/>
<path d="M38.8132 12.1759C38.6892 12.0607 38.4589 12.1006 38.3039 12.1493C38.2817 12.5037 38.2906 12.8581 38.2995 13.2125C37.9585 12.8714 37.3518 12.9467 37.0462 13.2967C36.7141 13.6733 36.6963 14.289 36.9886 14.6922C37.2676 15.0953 37.954 15.2238 38.2906 14.8251C38.3083 14.8871 38.2906 14.9757 38.357 15.0111C38.512 15.0333 38.6714 15.02 38.8264 14.9978C38.8043 14.0587 38.8486 13.1151 38.8132 12.1759ZM37.7769 14.5903C37.2455 14.5593 37.1702 13.6954 37.6396 13.5138C37.7946 13.4518 37.9806 13.4739 38.1135 13.5758C38.481 13.8637 38.2995 14.6479 37.7769 14.5903Z" fill="#FF0606"/>
<path d="M39.8758 12.4236C39.8669 12.6761 39.5392 12.8223 39.3444 12.6584C39.1495 12.5255 39.1805 12.2065 39.3842 12.1046C39.6012 11.9717 39.9068 12.1711 39.8758 12.4236Z" fill="#FF0606"/>
<path d="M11.9056 13.3939C11.6842 13.6332 11.3564 13.7749 11.2059 14.085C10.9535 14.6919 11.0465 15.3609 10.9756 15.9988C10.949 16.3665 10.5815 16.6367 10.2316 16.6456C10.0058 16.5747 10.0102 16.2912 10.0235 16.0963C10.0589 15.7463 10.0323 15.3963 10.0678 15.0508C10.143 14.6565 10.1386 14.2578 10.1608 13.8591C10.1829 13.6509 10.2228 13.4161 10.3955 13.2743C10.5416 13.137 10.7409 13.0883 10.9313 13.0617C11.166 13.0307 11.3653 12.8889 11.5867 12.8136C11.9144 12.6718 12.1049 13.1813 11.9056 13.3939Z" fill="#FF0606"/>
<path d="M34.296 14.9226C34.2872 15.0422 34.1322 15.0156 34.048 15.0245C33.9594 15.0156 33.8 15.051 33.7867 14.9226C33.7557 14.5327 33.7956 14.1429 33.769 13.753C33.7602 13.6201 33.6495 13.5005 33.5166 13.4828C33.3085 13.4296 33.0782 13.5891 33.0737 13.8062C33.0516 14.1872 33.087 14.5682 33.0605 14.9491C33.025 15.0422 32.9055 15.0156 32.8302 15.0245C32.7372 15.02 32.6309 15.0377 32.5512 14.9757C32.498 14.5504 32.5778 14.1163 32.5158 13.6954C32.4228 13.3765 31.9091 13.4163 31.8382 13.7309C31.7939 14.1296 31.8426 14.5327 31.8116 14.9314C31.7939 15.0555 31.6301 15.0156 31.5415 15.0289C31.4573 15.02 31.2979 15.051 31.2891 14.9314C31.2758 14.3467 31.2846 13.7575 31.2846 13.1683C31.2979 12.9866 31.5326 13.0619 31.6566 13.0487C31.7895 13.0309 31.7983 13.1727 31.8028 13.2657C32.0818 12.8936 32.715 12.8936 32.963 13.3012C33.2199 12.9158 33.8487 12.8803 34.1454 13.2347C34.3182 13.4385 34.3093 13.7176 34.3049 13.9701C34.296 14.2846 34.3137 14.6036 34.296 14.9226Z" fill="#FF0606"/>
<path d="M36.1784 13.1732C35.8108 12.9074 35.2529 12.9207 34.9207 13.2308C34.4247 13.6694 34.4779 14.5908 35.058 14.9319C35.5319 15.2332 36.3113 15.0781 36.4884 14.4978C36.3954 14.3737 36.2183 14.3782 36.081 14.3339C35.9747 14.4756 35.8418 14.6218 35.6514 14.6174C35.3769 14.6484 35.1377 14.4357 35.0979 14.1699C35.5141 14.1655 35.9304 14.1699 36.3423 14.1699C36.4175 14.1655 36.5327 14.1832 36.5327 14.0725C36.5504 13.7447 36.4485 13.377 36.1784 13.1732ZM35.1067 13.8111C35.1554 13.563 35.3946 13.3725 35.6514 13.4301C35.8551 13.4478 35.9836 13.6251 36.019 13.8155C35.7134 13.8111 35.4123 13.8111 35.1067 13.8111Z" fill="#FF0606"/>
<path d="M42.1651 13.1019C42.0234 12.9912 41.8241 13.0665 41.6558 13.0621C41.6558 13.1019 41.6514 13.1817 41.647 13.2215C41.3547 12.9159 40.8321 12.9424 40.5177 13.195C40.0749 13.5449 40.0217 14.2582 40.345 14.7056C40.6329 15.1176 41.3148 15.2283 41.6647 14.8296C41.6647 14.8739 41.6603 14.9625 41.6558 15.0068C41.8241 15.029 42.0013 15.0467 42.1695 15.0113C42.174 14.3689 42.1873 13.731 42.1651 13.1019ZM41.1333 14.5904C40.5753 14.5683 40.5133 13.6291 41.0403 13.4962C41.1864 13.4563 41.3503 13.4829 41.4698 13.5804C41.8241 13.8728 41.6514 14.6392 41.1333 14.5904Z" fill="#FF0606"/>
<path d="M39.8182 14.7676C39.8049 14.8473 39.8492 14.9802 39.7429 15.0112C39.6101 15.0289 39.4728 15.0334 39.3399 15.0112C39.2514 14.9625 39.2868 14.8473 39.2779 14.7676C39.2868 14.2182 39.2691 13.6733 39.2868 13.124C39.2956 13.1063 39.3178 13.0709 39.3266 13.0576C39.4816 13.0576 39.6942 12.9823 39.8049 13.1152C39.8271 13.6645 39.8093 14.2182 39.8182 14.7676Z" fill="#FF0606"/>
<path d="M9.37261 14.2717C9.48332 14.5552 9.34161 14.8521 9.32389 15.14C9.30618 15.6583 9.15118 16.1633 9.1689 16.6861C9.16447 16.8544 9.12904 17.0228 9.08476 17.1823C9.11133 17.1911 9.16004 17.2044 9.18218 17.2133C8.97847 17.3329 8.81462 17.5101 8.59319 17.5987C8.44262 17.6518 8.25663 17.5544 8.26106 17.3816C8.23449 16.6506 8.34963 15.9241 8.36734 15.1932C8.39391 14.821 8.39834 14.3958 8.67291 14.1078C8.81905 13.9705 9.0139 13.8287 9.22647 13.8597C9.38589 13.8996 9.37704 14.0901 9.42132 14.2186C9.41246 14.2274 9.38589 14.2584 9.37261 14.2717Z" fill="#FF0606"/>
</svg>
