<svg width="44" height="32" viewBox="0 0 44 32" fill="none" xmlns="http://www.w3.org/2000/svg">
<path d="M23.2721 5.10201C23.2355 4.87283 23.263 4.63449 23.2996 4.39616C23.5375 2.77362 24.7822 1.40775 26.3654 0.995241C26.4935 0.958574 26.5942 0.986074 26.704 1.04108C27.7381 1.56359 28.6624 2.24194 29.4678 3.08529C30.8497 4.53366 31.7282 6.24787 32.0943 8.21875C32.2407 9.0071 32.2956 9.79545 32.2499 10.593C32.0943 13.0405 31.1974 15.1672 29.5135 16.9548C28.0859 18.4673 26.3471 19.439 24.3063 19.879C23.4918 20.0532 22.6681 20.1265 21.8445 20.0899C19.3919 19.9707 17.2412 19.0998 15.4292 17.4223C13.8277 15.9373 12.8119 14.1131 12.3909 11.9588C12.217 11.0788 12.1713 10.1896 12.2353 9.30044C12.4092 7.03622 13.2511 5.03784 14.7703 3.34196C16.1797 1.75609 17.9276 0.729401 19.9959 0.252723C20.8195 0.0602187 21.6615 -0.0222833 22.5034 0.00521741C23.7938 0.041885 25.0384 0.316892 26.2281 0.830237C26.2647 0.848571 26.3013 0.866905 26.3288 0.903572C26.1824 0.894405 26.0451 0.876072 25.8986 0.876072C25.1665 0.866905 24.4527 0.96774 23.748 1.15108C22.174 1.55442 20.7463 2.26944 19.5291 3.3603C18.0557 4.68033 17.1314 6.31203 16.7745 8.26458C16.5366 9.57545 16.6464 10.868 17.168 12.0963C17.8178 13.6272 18.9068 14.7181 20.4626 15.3231C22.7047 16.1939 25.6516 15.4514 27.0609 12.8572C27.61 11.8488 27.8113 10.7671 27.6832 9.62128C27.5917 8.76876 27.3263 7.98958 26.8321 7.28373C26.3837 6.65121 25.7888 6.1837 25.1116 5.81702C24.5991 5.54202 24.0592 5.34951 23.5009 5.19367C23.4369 5.17534 23.3728 5.15701 23.3087 5.13867C23.2996 5.12951 23.2904 5.12034 23.2721 5.10201Z" fill="#ED1C24"/>
<path d="M15.5295 23.5188C16.0054 23.5188 16.4538 23.5188 16.9023 23.5188C16.9114 23.528 16.9206 23.528 16.9206 23.5371L16.9297 23.5463C16.9297 23.583 16.9389 23.6105 16.9389 23.6471C16.9389 26.1497 16.9389 28.6614 16.9389 31.164C16.8199 31.2006 15.923 31.219 15.6393 31.1823C15.621 31.0631 15.6027 30.944 15.5753 30.8065C15.5387 30.8248 15.5112 30.834 15.4929 30.8523C14.7974 31.5215 13.7175 31.3932 13.1044 30.9623C12.7474 30.7056 12.4729 30.3848 12.299 29.9906C11.8689 29.0464 11.8231 28.0747 12.1983 27.1031C12.5187 26.2872 13.1044 25.7555 13.9646 25.563C14.4039 25.4622 14.8523 25.4805 15.2916 25.5997C15.3556 25.618 15.4197 25.6272 15.5112 25.6547C15.5112 25.5813 15.5204 25.5263 15.5204 25.4622C15.5204 24.8755 15.5204 24.2796 15.5204 23.693C15.5204 23.638 15.5204 23.5738 15.5295 23.5188ZM15.5204 28.2489C15.5204 27.8364 15.5204 27.4239 15.5204 27.0114C15.5204 26.8555 15.5204 26.8555 15.3739 26.8097C15.2367 26.773 15.0902 26.7272 14.9438 26.7089C14.4954 26.6539 14.0927 26.7547 13.7724 27.1031C13.6168 27.2772 13.507 27.4789 13.4338 27.7081C13.3148 28.0931 13.3148 28.4781 13.3789 28.8631C13.4247 29.1289 13.507 29.3856 13.6718 29.6148C14.1385 30.2565 14.8981 30.2106 15.3922 29.7614C15.4838 29.6789 15.5204 29.5873 15.5204 29.4589C15.5112 29.0648 15.5204 28.6614 15.5204 28.2489Z" fill="#ED1C24"/>
<path d="M43.808 28.7703C42.6 28.7703 41.4194 28.7703 40.2114 28.7703C40.2206 28.8528 40.2206 28.9261 40.2389 28.9903C40.3304 29.5953 40.7147 29.9803 41.3187 30.0628C41.9777 30.1545 42.5908 30.017 43.1491 29.6503C43.1674 29.6411 43.1765 29.632 43.2131 29.6136C43.3412 29.9895 43.4602 30.3653 43.5883 30.7595C43.4694 30.8328 43.3504 30.9062 43.2314 30.9612C42.4078 31.3003 41.5658 31.4195 40.6964 31.2087C39.827 30.9978 39.2596 30.4295 38.9851 29.5953C38.7014 28.7428 38.7197 27.8719 39.0583 27.0377C39.4976 25.956 40.4951 25.4885 41.3554 25.5069C41.6024 25.516 41.8404 25.5344 42.0783 25.5894C42.7281 25.7635 43.1857 26.1577 43.4785 26.7627C43.7348 27.3036 43.8171 27.8719 43.8263 28.4678C43.808 28.5594 43.808 28.6511 43.808 28.7703ZM42.362 27.7436C42.3254 27.3219 42.1881 26.9736 41.8221 26.7627C41.456 26.5519 41.0991 26.5977 40.7513 26.8269C40.4219 27.0377 40.2846 27.3494 40.248 27.7436C40.9618 27.7436 41.6482 27.7436 42.362 27.7436Z" fill="#ED1C24"/>
<path d="M20.9301 27.5879C21.0124 27.0838 20.7379 26.7171 20.2437 26.6621C19.8776 26.6254 19.5299 26.6896 19.2096 26.8546C19.0357 26.9463 18.871 27.0563 18.6788 27.1571C18.5324 26.8362 18.3768 26.5154 18.2212 26.1762C18.2853 26.1304 18.3402 26.0846 18.3951 26.0479C18.9442 25.6996 19.539 25.5162 20.1888 25.4979C20.445 25.4887 20.7104 25.5071 20.9667 25.5621C21.708 25.7362 22.1472 26.2037 22.312 26.9371C22.3577 27.1388 22.376 27.3496 22.3852 27.5604C22.3943 28.7155 22.3852 29.8705 22.3852 31.0255C22.3852 31.0622 22.3852 31.108 22.376 31.1447C22.2571 31.1814 21.4151 31.1905 21.0948 31.163C21.0765 31.0439 21.049 30.9247 21.0307 30.7872C20.9941 30.8147 20.9667 30.8238 20.9392 30.8422C20.5183 31.218 20.0058 31.3372 19.4567 31.2914C19.0723 31.2639 18.7337 31.1264 18.4317 30.8788C17.9833 30.503 17.7911 30.0172 17.8277 29.4305C17.8551 28.8621 18.1297 28.4496 18.6056 28.1471C18.9716 27.9088 19.3835 27.7804 19.8136 27.7163C20.1064 27.6704 20.3993 27.6429 20.6921 27.6063C20.7562 27.6063 20.8477 27.5971 20.9301 27.5879ZM20.9575 28.6055C20.9026 28.6055 20.866 28.5963 20.8386 28.5963C20.5183 28.6421 20.1979 28.6788 19.8868 28.743C19.7404 28.7705 19.5939 28.8438 19.475 28.9355C19.237 29.1188 19.1455 29.3846 19.2187 29.678C19.2828 29.9347 19.475 30.063 19.7221 30.0997C20.1613 30.1822 20.5457 30.0538 20.8935 29.7788C20.9301 29.7513 20.9575 29.6963 20.9575 29.6505C20.9667 29.3113 20.9575 28.963 20.9575 28.6055Z" fill="#ED1C24"/>
<path d="M5.91159 28.3948C5.92989 27.7073 6.09462 27.0656 6.50644 26.5064C6.94572 25.9106 7.54057 25.5805 8.2727 25.5164C8.58386 25.4889 8.89501 25.4889 9.20616 25.5622C10.0024 25.7455 10.5789 26.2222 10.9175 26.9556C11.3842 27.9731 11.3568 29.009 10.8351 29.999C10.4691 30.6865 9.89253 31.1265 9.1238 31.264C8.18119 31.429 7.33924 31.2273 6.68032 30.494C6.29596 30.0723 6.08547 29.559 5.99396 28.9998C5.93905 28.8073 5.92989 28.6056 5.91159 28.3948ZM7.30263 28.3856C7.32094 28.5506 7.33009 28.7156 7.35754 28.8715C7.4033 29.1648 7.51312 29.4398 7.69615 29.6781C8.09882 30.2007 8.93162 30.219 9.35259 29.7698C9.53562 29.5773 9.66374 29.3481 9.7278 29.0915C9.82847 28.7248 9.84678 28.3398 9.79187 27.9639C9.74611 27.6706 9.65459 27.3864 9.47156 27.1481C9.16956 26.7631 8.77604 26.6164 8.30016 26.7172C7.90664 26.8089 7.65039 27.0747 7.49482 27.4323C7.35754 27.7439 7.31178 28.0648 7.30263 28.3856Z" fill="#ED1C24"/>
<path d="M32.9914 25.654C33.4123 25.654 33.8242 25.654 34.2543 25.654C34.2817 25.7823 34.3092 25.9107 34.3367 26.0665C34.4007 26.0207 34.4465 25.9932 34.4922 25.9565C35.1603 25.5165 35.8741 25.3882 36.6429 25.6082C37.0821 25.7365 37.4024 26.0207 37.6129 26.424C37.7685 26.7174 37.8509 27.0382 37.8783 27.3682C37.8966 27.5699 37.9058 27.7716 37.9058 27.9824C37.9058 28.9908 37.9058 29.9991 37.9058 31.0075C37.9058 31.0625 37.9058 31.1083 37.9058 31.1541C37.7777 31.2 36.835 31.2091 36.4964 31.1725C36.4964 31.1083 36.4873 31.0441 36.4873 30.98C36.4873 30.0174 36.4964 29.0641 36.4873 28.1016C36.4873 27.8724 36.4598 27.6341 36.4049 27.4141C36.2036 26.699 35.5904 26.5799 35.0962 26.754C34.84 26.8457 34.6295 27.0107 34.4373 27.1849C34.3733 27.2399 34.3824 27.304 34.3824 27.3682C34.3824 27.7349 34.3824 28.0924 34.3824 28.4591C34.3824 29.2933 34.3824 30.1274 34.3824 30.9616C34.3824 31.0258 34.3824 31.0991 34.3824 31.1725C33.9065 31.1725 33.4489 31.1725 32.9914 31.1725C32.9639 31.0625 32.9548 25.9198 32.9914 25.654Z" fill="#ED1C24"/>
<path d="M32.085 28.3949C32.0575 29.0549 31.9019 29.6782 31.5267 30.2282C31.0325 30.9433 30.3462 31.3008 29.4859 31.3191C29.0283 31.3283 28.5982 31.2549 28.1864 31.0441C27.6647 30.7691 27.2895 30.3566 27.0607 29.8157C26.6581 28.899 26.6398 27.9823 27.0333 27.0565C27.3719 26.2681 27.9576 25.7365 28.8087 25.5715C29.6873 25.3973 30.5017 25.544 31.179 26.1765C31.5999 26.5706 31.8562 27.0657 31.9751 27.6248C32.0301 27.8723 32.0484 28.1382 32.085 28.3949ZM30.6848 28.3949C30.6665 28.239 30.6573 28.074 30.639 27.9182C30.5933 27.6432 30.5017 27.3773 30.3279 27.1573C29.852 26.534 28.9734 26.534 28.5067 27.1665C28.4152 27.2948 28.342 27.4415 28.2871 27.5882C28.1406 28.0098 28.1223 28.4407 28.1955 28.8807C28.2413 29.1282 28.3237 29.3666 28.4609 29.5774C28.7629 30.0541 29.2754 30.1916 29.7696 30.0449C30.0716 29.9532 30.2821 29.7424 30.4285 29.4674C30.6116 29.1282 30.6665 28.7707 30.6848 28.3949Z" fill="#ED1C24"/>
<path d="M23.8676 26.7902C23.6113 26.7902 23.3825 26.7902 23.1354 26.7902C23.1171 26.4052 23.1263 26.0385 23.1263 25.6443C23.3734 25.6443 23.6113 25.6443 23.8676 25.6443C23.8676 25.5526 23.8676 25.4793 23.8676 25.406C23.8859 25.1676 23.8767 24.9293 23.9225 24.7001C24.0689 23.9484 24.5356 23.5084 25.2952 23.3984C25.8443 23.3159 26.3842 23.3709 26.9333 23.5909C26.8784 23.9759 26.8327 24.3609 26.7778 24.7551C26.7137 24.7368 26.6679 24.7276 26.6222 24.7093C26.3934 24.6176 26.1646 24.5993 25.9175 24.6084C25.5606 24.6268 25.3318 24.8284 25.2769 25.1951C25.2586 25.3326 25.2586 25.4793 25.2494 25.6351C25.6613 25.6351 26.0456 25.6351 26.4575 25.6351C26.4666 26.0293 26.4575 26.396 26.4666 26.7902C26.0639 26.7902 25.6796 26.7902 25.2769 26.7902C25.2769 28.266 25.2769 29.7144 25.2769 31.1811C24.801 31.1811 24.3434 31.1811 23.8676 31.1811C23.8493 31.0069 23.8584 30.8236 23.8584 30.6494C23.8584 30.4661 23.8584 30.2827 23.8584 30.1086C23.8584 29.9252 23.8584 29.7419 23.8584 29.5677C23.8584 29.3844 23.8584 29.1919 23.8584 29.0086C23.8584 28.8252 23.8584 28.6419 23.8584 28.4677C23.8584 28.2844 23.8584 28.101 23.8584 27.9269C23.8584 27.7435 23.8584 27.5602 23.8584 27.386C23.8676 27.1843 23.8676 27.001 23.8676 26.7902Z" fill="#ED1C24"/>
<path d="M4.57764e-05 25.6534C0.0275006 25.6534 0.0549553 25.6442 0.0824101 25.6442C0.53999 25.6442 0.997569 25.6442 1.47345 25.6442C1.94934 26.8543 2.42522 28.0735 2.91025 29.2835C2.9194 29.2835 2.93771 29.2835 2.94686 29.2835C3.40444 28.0735 3.87117 26.8634 4.32875 25.6534C4.80463 25.6534 5.27136 25.6534 5.76555 25.6534C5.01512 27.5051 4.27384 29.3385 3.52341 31.181C3.11159 31.181 2.69977 31.181 2.2971 31.181C2.19643 31.016 0.018349 25.7817 4.57764e-05 25.6534Z" fill="#ED1C24"/>
</svg>
